<svg width="35" height="35" viewBox="0 0 35 35" fill="none" xmlns="http://www.w3.org/2000/svg">
<path d="M17.5 0.75C17.8433 0.75 18.1825 0.820042 18.4971 0.955078L18.6299 1.0166L18.6318 1.01758L32.4336 7.96484H32.4346C34.8081 9.15919 33.9806 12.7753 31.3027 12.7754H27.1387V27.417H30.833C31.739 27.417 32.6083 27.7764 33.249 28.417C33.8897 29.0577 34.2499 29.9269 34.25 30.833C34.25 31.7392 33.8898 32.6083 33.249 33.249C32.6083 33.8898 31.7392 34.25 30.833 34.25H4.16699C3.26084 34.25 2.39172 33.8898 1.75098 33.249C1.11023 32.6083 0.75 31.7392 0.75 30.833C0.750065 29.9269 1.11029 29.0577 1.75098 28.417C2.3917 27.7764 3.26095 27.417 4.16699 27.417H7.86133V12.7754H3.69727C1.01941 12.7753 0.191895 9.15919 2.56543 7.96484L16.3682 1.01758L16.3701 1.0166L16.5029 0.955078C16.8175 0.820041 17.1567 0.75 17.5 0.75ZM18.25 27.417H25.6387V12.7754H18.25V27.417ZM9.36133 27.417H16.75V12.7754H9.36133V27.417Z" stroke="white" stroke-width="1.5" stroke-linecap="round" stroke-linejoin="round"/>
</svg>
