<svg width="48" height="48" viewBox="0 0 48 48" fill="none" xmlns="http://www.w3.org/2000/svg">
<path d="M10 38C9.43334 38 8.95867 37.808 8.57601 37.424C8.19334 37.04 8.00134 36.5653 8.00001 36C7.99867 35.4347 8.19067 34.96 8.57601 34.576C8.96134 34.192 9.43601 34 10 34H12V20C12 17.2333 12.8333 14.7753 14.5 12.626C16.1667 10.4767 18.3333 9.068 21 8.4V7C21 6.16667 21.292 5.45867 21.876 4.876C22.46 4.29334 23.168 4.00134 24 4C24.832 3.99867 25.5407 4.29067 26.126 4.876C26.7113 5.46134 27.0027 6.16934 27 7V8.4C29.6667 9.06667 31.8333 10.4753 33.5 12.626C35.1667 14.7767 36 17.2347 36 20V34H38C38.5667 34 39.042 34.192 39.426 34.576C39.81 34.96 40.0013 35.4347 40 36C39.9987 36.5653 39.8067 37.0407 39.424 37.426C39.0413 37.8113 38.5667 38.0027 38 38H10ZM24 44C22.9 44 21.9587 43.6087 21.176 42.826C20.3933 42.0433 20.0013 41.1013 20 40H28C28 41.1 27.6087 42.042 26.826 42.826C26.0433 43.61 25.1013 44.0013 24 44ZM16 34H32V20C32 17.8 31.2167 15.9167 29.65 14.35C28.0833 12.7833 26.2 12 24 12C21.8 12 19.9167 12.7833 18.35 14.35C16.7833 15.9167 16 17.8 16 20V34Z" fill="white"/>
</svg>
