<svg width="48" height="48" viewBox="0 0 48 48" fill="none" xmlns="http://www.w3.org/2000/svg">
<path d="M20 24C24.42 24 28 20.42 28 16C28 11.58 24.42 8 20 8C15.58 8 12 11.58 12 16C12 20.42 15.58 24 20 24ZM20 12C21.0609 12 22.0783 12.4214 22.8284 13.1716C23.5786 13.9217 24 14.9391 24 16C24 17.0609 23.5786 18.0783 22.8284 18.8284C22.0783 19.5786 21.0609 20 20 20C17.78 20 16 18.22 16 16C16 13.78 17.8 12 20 12ZM24 40H4V34C4 28.66 14.66 26 20 26C22 26 24.76 26.38 27.42 27.12C26.82 28.24 26.46 29.48 26.42 30.78C24.46 30.2 22.22 29.8 20 29.8C14.06 29.8 7.8 32.72 7.8 34V36.2H24V40ZM41.6 34V31C41.6 28.2 38.8 26 36 26C33.2 26 30.4 28.2 30.4 31V34C29.2 34 28 35.2 28 36.4V43.4C28 44.8 29.2 46 30.4 46H41.4C42.8 46 44 44.8 44 43.6V36.6C44 35.2 42.8 34 41.6 34ZM39 34H33V31C33 29.4 34.4 28.4 36 28.4C37.6 28.4 39 29.4 39 31V34Z" fill="white"/>
</svg>
