<svg width="34" height="34" viewBox="0 0 34 34" fill="none" xmlns="http://www.w3.org/2000/svg">
<g clip-path="url(#clip0_239_2668)">
<rect x="16.9706" width="24" height="24" rx="12" transform="rotate(45 16.9706 0)" fill="#00598D"/>
<path fill-rule="evenodd" clip-rule="evenodd" d="M16.9705 7.736C17.1693 7.73612 17.3599 7.81513 17.5004 7.95567C17.6409 8.09621 17.7199 8.28678 17.7201 8.48553L17.7201 16.2213L25.4558 16.2213C25.5565 16.2177 25.6568 16.2345 25.7509 16.2706C25.8449 16.3066 25.9307 16.3613 26.0032 16.4312C26.0756 16.5012 26.1333 16.585 26.1726 16.6777C26.212 16.7704 26.2323 16.8701 26.2323 16.9708C26.2323 17.0715 26.212 17.1712 26.1726 17.2639C26.1333 17.3566 26.0756 17.4405 26.0032 17.5104C25.9307 17.5804 25.8449 17.635 25.7509 17.6711C25.6568 17.7071 25.5565 17.7239 25.4558 17.7203L17.7201 17.7203L17.7201 25.4561C17.7236 25.5567 17.7069 25.6571 17.6708 25.7511C17.6347 25.8452 17.5801 25.931 17.5101 26.0034C17.4402 26.0759 17.3564 26.1335 17.2637 26.1729C17.1709 26.2123 17.0713 26.2326 16.9705 26.2326C16.8698 26.2326 16.7701 26.2123 16.6774 26.1729C16.5847 26.1335 16.5009 26.0759 16.4309 26.0034C16.361 25.931 16.3063 25.8452 16.2703 25.7511C16.2342 25.6571 16.2175 25.5567 16.221 25.4561L16.221 17.7203L8.48526 17.7203C8.29105 17.7135 8.10708 17.6315 7.97211 17.4917C7.83715 17.3519 7.76172 17.1651 7.76172 16.9708C7.76172 16.7765 7.83715 16.5897 7.97211 16.4499C8.10708 16.3101 8.29105 16.2281 8.48526 16.2213L16.221 16.2213L16.221 8.48553C16.2211 8.28678 16.3001 8.09621 16.4407 7.95567C16.5812 7.81513 16.7718 7.73612 16.9705 7.736Z" fill="white"/>
</g>
<defs>
<clipPath id="clip0_239_2668">
<rect x="16.9706" width="24" height="24" rx="12" transform="rotate(45 16.9706 0)" fill="white"/>
</clipPath>
</defs>
</svg>
