<svg width="44" height="44" viewBox="0 0 44 44" fill="none" xmlns="http://www.w3.org/2000/svg">
<path d="M22 31.1667C22.5194 31.1667 22.9552 30.9907 23.3072 30.6387C23.6592 30.2867 23.8346 29.8516 23.8333 29.3333C23.8321 28.8151 23.6561 28.38 23.3053 28.028C22.9546 27.676 22.5194 27.5 22 27.5C21.4806 27.5 21.0454 27.676 20.6947 28.028C20.3439 28.38 20.1679 28.8151 20.1667 29.3333C20.1654 29.8516 20.3414 30.2873 20.6947 30.6405C21.0479 30.9937 21.483 31.1691 22 31.1667ZM22 23.8333C22.5194 23.8333 22.9552 23.6573 23.3072 23.3053C23.6592 22.9533 23.8346 22.5182 23.8333 22V14.6667C23.8333 14.1472 23.6573 13.7121 23.3053 13.3613C22.9533 13.0106 22.5182 12.8346 22 12.8333C21.4818 12.8321 21.0467 13.0081 20.6947 13.3613C20.3427 13.7146 20.1667 14.1497 20.1667 14.6667V22C20.1667 22.5194 20.3427 22.9552 20.6947 23.3072C21.0467 23.6592 21.4818 23.8346 22 23.8333ZM16.6375 38.5C16.1486 38.5 15.6829 38.4083 15.2405 38.225C14.7981 38.0417 14.4082 37.7819 14.0708 37.4458L6.55417 29.9292C6.21806 29.5931 5.95833 29.2032 5.775 28.7595C5.59167 28.3158 5.5 27.8508 5.5 27.3643V16.6393C5.5 16.1504 5.59167 15.6848 5.775 15.2423C5.95833 14.7999 6.21806 14.41 6.55417 14.0727L14.0708 6.556C14.4069 6.21989 14.7968 5.96017 15.2405 5.77683C15.6842 5.5935 16.1498 5.50122 16.6375 5.5H27.3625C27.8514 5.5 28.3177 5.59167 28.7613 5.775C29.205 5.95833 29.5943 6.21806 29.9292 6.55417L37.4458 14.0708C37.7819 14.4069 38.0417 14.7968 38.225 15.2405C38.4083 15.6842 38.5 16.1498 38.5 16.6375V27.3625C38.5 27.8514 38.4083 28.3177 38.225 28.7613C38.0417 29.205 37.7819 29.5943 37.4458 29.9292L29.9292 37.4458C29.5931 37.7819 29.2032 38.0417 28.7595 38.225C28.3158 38.4083 27.8502 38.5 27.3625 38.5H16.6375ZM16.6833 34.8333H27.3167L34.8333 27.3167V16.6833L27.3167 9.16667H16.6833L9.16667 16.6833V27.3167L16.6833 34.8333Z" fill="#DB0E0E"/>
</svg>
