<svg width="43" height="43" viewBox="0 0 43 43" fill="none" xmlns="http://www.w3.org/2000/svg">
<path d="M21.5 16.125C19.7181 16.125 18.0091 16.8329 16.7491 18.0929C15.4891 19.3529 14.7812 21.0618 14.7812 22.8438C14.7812 24.6257 15.4891 26.3346 16.7491 27.5946C18.0091 28.8546 19.7181 29.5625 21.5 29.5625C23.2819 29.5625 24.9909 28.8546 26.2509 27.5946C27.5109 26.3346 28.2188 24.6257 28.2188 22.8438C28.2188 21.0618 27.5109 19.3529 26.2509 18.0929C24.9909 16.8329 23.2819 16.125 21.5 16.125Z" fill="black" fill-opacity="0.33"/>
<path fill-rule="evenodd" clip-rule="evenodd" d="M16.7413 5.5022C19.9115 5.33193 23.0885 5.33193 26.2587 5.5022C27.9912 5.59537 29.5374 6.55033 30.4368 7.99262L31.9078 10.3522C32.3378 11.0385 33.0634 11.5043 33.8965 11.6243C34.5881 11.7211 35.2761 11.8268 35.9605 11.9415C38.5262 12.3697 40.3125 14.6164 40.3125 17.1534V32.25C40.3125 33.6755 39.7462 35.0427 38.7382 36.0507C37.7302 37.0587 36.363 37.625 34.9375 37.625H8.0625C6.63696 37.625 5.26981 37.0587 4.2618 36.0507C3.25379 35.0427 2.6875 33.6755 2.6875 32.25V17.1534C2.6875 14.6164 4.47379 12.3697 7.03946 11.9415C7.72387 11.8268 8.41187 11.7211 9.10167 11.6225C9.50589 11.5684 9.89338 11.4265 10.2369 11.2068C10.5805 10.987 10.8718 10.6947 11.0904 10.3505L12.5632 7.99441C13.0084 7.27426 13.6205 6.67195 14.3478 6.23845C15.0751 5.80496 15.8961 5.55124 16.7413 5.5022ZM12.0938 22.8437C12.0938 20.3491 13.0848 17.9565 14.8488 16.1925C16.6128 14.4285 19.0053 13.4375 21.5 13.4375C23.9947 13.4375 26.3872 14.4285 28.1512 16.1925C29.9152 17.9565 30.9062 20.3491 30.9062 22.8437C30.9062 25.3384 29.9152 27.731 28.1512 29.495C26.3872 31.259 23.9947 32.25 21.5 32.25C19.0053 32.25 16.6128 31.259 14.8488 29.495C13.0848 27.731 12.0938 25.3384 12.0938 22.8437ZM33.5938 20.1562C33.9501 20.1562 34.2919 20.0147 34.5439 19.7627C34.7959 19.5107 34.9375 19.1689 34.9375 18.8125C34.9375 18.4561 34.7959 18.1143 34.5439 17.8623C34.2919 17.6103 33.9501 17.4687 33.5938 17.4687C33.2374 17.4687 32.8956 17.6103 32.6436 17.8623C32.3916 18.1143 32.25 18.4561 32.25 18.8125C32.25 19.1689 32.3916 19.5107 32.6436 19.7627C32.8956 20.0147 33.2374 20.1562 33.5938 20.1562Z" fill="black" fill-opacity="0.33"/>
</svg>
