<svg width="41" height="41" viewBox="0 0 41 41" fill="none" xmlns="http://www.w3.org/2000/svg">
<g clip-path="url(#clip0_94_752)">
<path d="M26.2638 31.2278V11.7685C26.2638 11.0079 25.9616 10.2785 25.4239 9.74077C24.8861 9.203 24.1567 8.90088 23.3962 8.90088H4.88027C4.11974 8.90088 3.39036 9.203 2.85259 9.74077C2.31481 10.2785 2.0127 11.0079 2.0127 11.7685V30.769C2.0127 31.5295 2.31481 32.2589 2.85259 32.7967C3.39036 33.3344 4.11974 33.6366 4.88027 33.6366H7.03095M38.1327 22.4731H26.2666M34.2729 33.1003H35.2622C36.0227 33.1003 36.7521 32.7982 37.2899 32.2604C37.8277 31.7227 38.1298 30.9933 38.1298 30.2328V21.63L34.1353 13.4489C33.8992 12.9671 33.5328 12.5612 33.0776 12.2774C32.6223 11.9935 32.0966 11.843 31.5602 11.843H26.7799" stroke="black" stroke-opacity="0.5" stroke-width="2.6764" stroke-linecap="round" stroke-linejoin="round"/>
<path d="M24.5953 33.6368H16.1733M7.1748 33.7229C7.1748 34.7846 7.59656 35.8028 8.34729 36.5535C9.09803 37.3042 10.1162 37.726 11.1779 37.726C12.2396 37.726 13.2578 37.3042 14.0086 36.5535C14.7593 35.8028 15.1811 34.7846 15.1811 33.7229C15.1811 32.6612 14.7593 31.6429 14.0086 30.8922C13.2578 30.1415 12.2396 29.7197 11.1779 29.7197C10.1162 29.7197 9.09803 30.1415 8.34729 30.8922C7.59656 31.6429 7.1748 32.6612 7.1748 33.7229ZM25.3466 33.7229C25.3466 34.2486 25.4502 34.7691 25.6513 35.2548C25.8525 35.7405 26.1474 36.1818 26.5191 36.5535C26.8908 36.9252 27.3321 37.2201 27.8178 37.4213C28.3035 37.6224 28.8241 37.726 29.3498 37.726C29.8755 37.726 30.396 37.6224 30.8817 37.4213C31.3674 37.2201 31.8087 36.9252 32.1804 36.5535C32.5521 36.1818 32.847 35.7405 33.0482 35.2548C33.2493 34.7691 33.3529 34.2486 33.3529 33.7229C33.3529 33.1972 33.2493 32.6766 33.0482 32.1909C32.847 31.7052 32.5521 31.2639 32.1804 30.8922C31.8087 30.5205 31.3674 30.2256 30.8817 30.0244C30.396 29.8233 29.8755 29.7197 29.3498 29.7197C28.8241 29.7197 28.3035 29.8233 27.8178 30.0244C27.3321 30.2256 26.8908 30.5205 26.5191 30.8922C26.1474 31.2639 25.8525 31.7052 25.6513 32.1909C25.4502 32.6766 25.3466 33.1972 25.3466 33.7229Z" stroke="black" stroke-opacity="0.5" stroke-width="2.6764" stroke-linecap="round" stroke-linejoin="round"/>
</g>
<defs>
<clipPath id="clip0_94_752">
<rect width="40.146" height="40.146" fill="white"/>
</clipPath>
</defs>
</svg>
