<svg width="42" height="42" viewBox="0 0 42 42" fill="none" xmlns="http://www.w3.org/2000/svg">
<path d="M21 23.45L26.075 28.525C26.3958 28.8458 26.8042 29.0063 27.3 29.0063C27.7958 29.0063 28.2042 28.8458 28.525 28.525C28.8458 28.2042 29.0063 27.7958 29.0063 27.3C29.0063 26.8042 28.8458 26.3958 28.525 26.075L23.45 21L28.525 15.925C28.8458 15.6042 29.0063 15.1958 29.0063 14.7C29.0063 14.2042 28.8458 13.7958 28.525 13.475C28.2042 13.1542 27.7958 12.9938 27.3 12.9938C26.8042 12.9938 26.3958 13.1542 26.075 13.475L21 18.55L15.925 13.475C15.6042 13.1542 15.1958 12.9938 14.7 12.9938C14.2042 12.9938 13.7958 13.1542 13.475 13.475C13.1542 13.7958 12.9938 14.2042 12.9938 14.7C12.9938 15.1958 13.1542 15.6042 13.475 15.925L18.55 21L13.475 26.075C13.1542 26.3958 12.9938 26.8042 12.9938 27.3C12.9938 27.7958 13.1542 28.2042 13.475 28.525C13.7958 28.8458 14.2042 29.0063 14.7 29.0063C15.1958 29.0063 15.6042 28.8458 15.925 28.525L21 23.45ZM21 38.5C18.5792 38.5 16.3042 38.0403 14.175 37.121C12.0458 36.2017 10.1938 34.9551 8.61875 33.3813C7.04375 31.8074 5.79717 29.9553 4.879 27.825C3.96084 25.6947 3.50117 23.4197 3.5 21C3.49884 18.5803 3.9585 16.3053 4.879 14.175C5.7995 12.0447 7.04609 10.1926 8.61875 8.61875C10.1914 7.04492 12.0435 5.79833 14.175 4.879C16.3065 3.95967 18.5815 3.5 21 3.5C23.4185 3.5 25.6935 3.95967 27.825 4.879C29.9565 5.79833 31.8086 7.04492 33.3813 8.61875C34.9539 10.1926 36.2011 12.0447 37.1228 14.175C38.0444 16.3053 38.5035 18.5803 38.5 21C38.4965 23.4197 38.0368 25.6947 37.121 27.825C36.2052 29.9553 34.9586 31.8074 33.3813 33.3813C31.8039 34.9551 29.9518 36.2023 27.825 37.1227C25.6982 38.0433 23.4232 38.5023 21 38.5ZM21 35C24.9083 35 28.2188 33.6438 30.9312 30.9312C33.6438 28.2188 35 24.9083 35 21C35 17.0917 33.6438 13.7812 30.9312 11.0688C28.2188 8.35625 24.9083 7 21 7C17.0917 7 13.7813 8.35625 11.0688 11.0688C8.35625 13.7812 7 17.0917 7 21C7 24.9083 8.35625 28.2188 11.0688 30.9312C13.7813 33.6438 17.0917 35 21 35Z" fill="#800A0A"/>
</svg>
