<svg width="36" height="36" viewBox="0 0 36 36" fill="none" xmlns="http://www.w3.org/2000/svg">
<path d="M21.456 7.26605L25.734 11.5441M10.5 10.5001H6C5.60218 10.5001 5.22064 10.6581 4.93934 10.9394C4.65804 11.2207 4.5 11.6022 4.5 12.0001V27.0001C4.5 27.3979 4.65804 27.7794 4.93934 28.0607C5.22064 28.342 5.60218 28.5001 6 28.5001H22.5C22.8978 28.5001 23.2794 28.342 23.5607 28.0607C23.842 27.7794 24 27.3979 24 27.0001V20.2501M27.6135 5.38505C27.8946 5.66601 28.1175 5.99959 28.2696 6.36673C28.4218 6.73388 28.5 7.12739 28.5 7.5248C28.5 7.92221 28.4218 8.31573 28.2696 8.68287C28.1175 9.05002 27.8946 9.38359 27.6135 9.66455L17.3475 19.9306L12 21.0001L13.0695 15.6526L23.3355 5.38655C23.6162 5.10536 23.9497 4.88227 24.3167 4.73007C24.6837 4.57786 25.0772 4.49951 25.4745 4.49951C25.8718 4.49951 26.2653 4.57786 26.6323 4.73007C26.9994 4.88227 27.3328 5.10536 27.6135 5.38655V5.38505Z" stroke="#0E82FD" stroke-width="2.5" stroke-linecap="round" stroke-linejoin="round"/>
</svg>
