<svg width="50" height="50" viewBox="0 0 50 50" fill="none" xmlns="http://www.w3.org/2000/svg">
<path d="M24.9999 2.08334C22.2372 2.08334 19.5877 3.18081 17.6342 5.13431C15.6807 7.08782 14.5833 9.73734 14.5833 12.5V16.6667H12.4999C11.3948 16.6667 10.335 17.1057 9.55364 17.8871C8.77224 18.6685 8.33325 19.7283 8.33325 20.8333V41.6667C8.33325 42.7717 8.77224 43.8316 9.55364 44.613C10.335 45.3944 11.3948 45.8333 12.4999 45.8333H37.4999C38.605 45.8333 39.6648 45.3944 40.4462 44.613C41.2276 43.8316 41.6666 42.7717 41.6666 41.6667V20.8333C41.6666 19.7283 41.2276 18.6685 40.4462 17.8871C39.6648 17.1057 38.605 16.6667 37.4999 16.6667H35.4166V12.5C35.4166 11.1321 35.1472 9.77753 34.6237 8.51372C34.1002 7.24992 33.3329 6.10159 32.3656 5.13431C31.3983 4.16704 30.25 3.39975 28.9862 2.87627C27.7224 2.35278 26.3679 2.08334 24.9999 2.08334ZM24.9999 6.04168C28.5624 6.04168 31.4583 8.93751 31.4583 12.5V16.6667H18.5416V12.5C18.5416 8.93751 21.4374 6.04168 24.9999 6.04168ZM25.3958 21.875C27.3541 21.875 28.9166 22.3125 30.0416 23.1667C31.1666 24.0417 31.7291 25.2083 31.7291 26.6667C31.7291 27.5833 31.4166 28.3958 30.8124 29.1667C30.2083 29.9167 29.4166 30.5 28.4583 30.9375C27.9166 31.25 27.5624 31.5625 27.3749 31.9167C27.1874 32.2917 27.0833 32.75 27.0833 33.3333H22.9166C22.9166 32.2917 23.1249 31.5833 23.5208 31.0833C23.9583 30.5833 24.6666 30 25.7499 29.3333C26.2916 29.0417 26.7291 28.6667 27.0833 28.2083C27.3749 27.7708 27.5416 27.25 27.5416 26.6667C27.5416 26.0417 27.3541 25.5833 26.9791 25.2292C26.6041 24.8542 26.0416 24.6875 25.3958 24.6875C24.8333 24.6875 24.3749 24.8333 23.9583 25.125C23.6249 25.4167 23.4166 25.8542 23.4166 26.4375H19.3124C19.2083 25 19.7916 23.75 20.9374 23C22.0624 22.25 23.5416 21.875 25.3958 21.875ZM22.9166 35.4167H27.0833V39.5833H22.9166V35.4167Z" fill="#125EB1"/>
</svg>
