<svg width="36" height="36" viewBox="0 0 36 36" fill="none" xmlns="http://www.w3.org/2000/svg">
<path d="M11.7436 24.2565C8.51767 21.0244 6.03683 17.1265 4.47456 12.8355C3.61506 10.4895 4.40256 7.91253 6.16956 6.14553L7.26306 5.05353C7.55704 4.75896 7.90623 4.52526 8.29064 4.3658C8.67505 4.20634 9.08714 4.12427 9.50331 4.12427C9.91948 4.12427 10.3316 4.20634 10.716 4.3658C11.1004 4.52526 11.4496 4.75896 11.7436 5.05353L14.3041 7.61403C14.5986 7.90801 14.8323 8.2572 14.9918 8.64162C15.1512 9.02603 15.2333 9.43811 15.2333 9.85428C15.2333 10.2705 15.1512 10.6825 14.9918 11.067C14.8323 11.4514 14.5986 11.8006 14.3041 12.0945L13.6741 12.7245C13.4219 12.9767 13.2218 13.276 13.0854 13.6054C12.9489 13.9349 12.8786 14.2879 12.8786 14.6445C12.8786 15.0011 12.9489 15.3542 13.0854 15.6837C13.2218 16.0131 13.4219 16.3124 13.6741 16.5645L19.4341 22.326C19.6862 22.5782 19.9855 22.7782 20.3149 22.9147C20.6444 23.0512 20.9975 23.1214 21.3541 23.1214C21.7106 23.1214 22.0637 23.0512 22.3932 22.9147C22.7226 22.7782 23.0219 22.5782 23.2741 22.326L23.9056 21.696C24.1995 21.4015 24.5487 21.1678 24.9331 21.0083C25.3176 20.8488 25.7296 20.7668 26.1458 20.7668C26.562 20.7668 26.9741 20.8488 27.3585 21.0083C27.7429 21.1678 28.0921 21.4015 28.3861 21.696L30.9466 24.2565C31.2411 24.5505 31.4748 24.8997 31.6343 25.2841C31.7937 25.6685 31.8758 26.0806 31.8758 26.4968C31.8758 26.913 31.7937 27.325 31.6343 27.7095C31.4748 28.0939 31.2411 28.4431 30.9466 28.737L29.8546 29.829C28.0876 31.5975 25.5106 32.385 23.1646 31.5255C18.8736 29.9633 14.9757 27.4824 11.7436 24.2565Z" stroke="#888888" stroke-width="2" stroke-linejoin="round"/>
</svg>
