<svg width="34" height="34" viewBox="0 0 34 34" fill="none" xmlns="http://www.w3.org/2000/svg">
<path d="M28.3333 5.66675C29.1124 5.66675 29.7799 5.94442 30.3352 6.49976C30.8904 7.05499 31.1671 7.72172 31.1663 8.49976V25.4998C31.1663 26.2788 30.8895 26.9464 30.3352 27.5017C29.7808 28.057 29.1134 28.3347 28.3333 28.3337H5.66626C4.88723 28.3337 4.22057 28.056 3.66626 27.5017C3.11191 26.9473 2.8342 26.2798 2.83325 25.4998V8.49976C2.83333 7.72073 3.111 7.05407 3.66626 6.49976C4.22152 5.94544 4.88818 5.66777 5.66626 5.66675H28.3333ZM17.0002 18.4167L5.66626 11.3337V25.4998H28.3333V11.3337L17.0002 18.4167ZM17.0002 15.5837L28.3333 8.49976H5.66626L17.0002 15.5837Z" fill="black" fill-opacity="0.4"/>
<path d="M28.3333 5.66675C29.1124 5.66675 29.7799 5.94442 30.3352 6.49976C30.8904 7.05499 31.1671 7.72172 31.1663 8.49976V25.4998C31.1663 26.2788 30.8895 26.9464 30.3352 27.5017C29.7808 28.057 29.1134 28.3347 28.3333 28.3337H5.66626C4.88723 28.3337 4.22057 28.056 3.66626 27.5017C3.11191 26.9473 2.8342 26.2798 2.83325 25.4998V8.49976C2.83333 7.72073 3.111 7.05407 3.66626 6.49976C4.22152 5.94544 4.88818 5.66777 5.66626 5.66675H28.3333ZM17.0002 18.4167L5.66626 11.3337V25.4998H28.3333V11.3337L17.0002 18.4167ZM17.0002 15.5837L28.3333 8.49976H5.66626L17.0002 15.5837Z" stroke=""/>
</svg>
