<svg width="34" height="34" viewBox="0 0 34 34" fill="none" xmlns="http://www.w3.org/2000/svg">
<path d="M27.573 7.89925C26.5984 6.83675 24.8403 6.77159 23.6687 7.94317L12.1937 19.4182C11.8962 19.7157 11.8962 20.0925 12.1937 20.39C12.4912 20.6875 12.868 20.6875 13.1655 20.39L22.6572 10.8983C22.9244 10.6403 23.2823 10.4975 23.6537 10.5007C24.0251 10.5039 24.3805 10.6529 24.6431 10.9156C24.9058 11.1783 25.0548 11.5336 25.058 11.905C25.0612 12.2765 24.9184 12.6343 24.6604 12.9015L15.1687 22.3932C14.8452 22.726 14.4583 22.9906 14.0307 23.1713C13.6032 23.352 13.1438 23.4451 12.6796 23.4451C12.2155 23.4451 11.756 23.352 11.3285 23.1713C10.901 22.9906 10.514 22.726 10.1905 22.3932C9.85769 22.0697 9.59309 21.6827 9.41241 21.2552C9.23172 20.8277 9.13863 20.3682 9.13863 19.9041C9.13863 19.4399 9.23172 18.9805 9.41241 18.553C9.59309 18.1254 9.85769 17.7385 10.1905 17.415L21.6655 5.94C23.8855 3.71867 27.4951 3.64642 29.6414 5.96125C31.84 8.184 31.9038 11.7753 29.5989 13.913L16.1604 27.3515C13.0579 30.454 8.19305 30.454 5.09055 27.3515C1.98805 24.249 1.98805 19.3842 5.09055 16.2817L16.5655 4.80667C16.8327 4.54861 17.1906 4.40582 17.562 4.40905C17.9335 4.41228 18.2888 4.56127 18.5515 4.82393C18.8141 5.08659 18.9631 5.44191 18.9663 5.81335C18.9696 6.1848 18.8268 6.54265 18.5687 6.80984L7.09371 18.2848C5.09621 20.2823 5.09621 23.3508 7.09371 25.3483C9.09121 27.3458 12.1597 27.3458 14.1572 25.3483L27.6155 11.89L27.6595 11.8475C28.722 10.8743 28.7871 9.11475 27.6155 7.94317L27.573 7.89925Z" fill="black" fill-opacity="0.8"/>
</svg>
