<svg width="46" height="46" viewBox="0 0 46 46" fill="none" xmlns="http://www.w3.org/2000/svg">
<path fill-rule="evenodd" clip-rule="evenodd" d="M13.7441 18.9579C13.7441 16.5696 14.6929 14.2791 16.3816 12.5904C18.0704 10.9016 20.3608 9.95288 22.7491 9.95288C25.1374 9.95288 27.4278 10.9016 29.1166 12.5904C30.8054 14.2791 31.7541 16.5696 31.7541 18.9579C31.7541 21.3461 30.8054 23.6366 29.1166 25.3253C27.4278 27.0141 25.1374 27.9628 22.7491 27.9628C20.3608 27.9628 18.0704 27.0141 16.3816 25.3253C14.6929 23.6366 13.7441 21.3461 13.7441 18.9579ZM22.7491 12.7966C21.115 12.7966 19.5479 13.4457 18.3924 14.6012C17.237 15.7566 16.5878 17.3238 16.5878 18.9579C16.5878 20.5919 17.237 22.1591 18.3924 23.3146C19.5479 24.47 21.115 25.1192 22.7491 25.1192C24.3832 25.1192 25.9503 24.47 27.1058 23.3146C28.2613 22.1591 28.9104 20.5919 28.9104 18.9579C28.9104 17.3238 28.2613 15.7566 27.1058 14.6012C25.9503 13.4457 24.3832 12.7966 22.7491 12.7966Z" fill="black" fill-opacity="0.5"/>
<path fill-rule="evenodd" clip-rule="evenodd" d="M6.68054 16.7909C7.00543 12.8609 8.79588 9.19659 11.6966 6.52519C14.5973 3.85379 18.3963 2.37049 22.3397 2.36963H23.1587C27.1021 2.37049 30.9011 3.85379 33.8018 6.52519C36.7025 9.19659 38.493 12.8609 38.8179 16.7909C39.1793 21.1689 37.8267 25.5161 35.0453 28.9163L25.9588 40.0275C25.5699 40.503 25.0802 40.8862 24.5252 41.1493C23.9701 41.4125 23.3635 41.5489 22.7492 41.5489C22.1349 41.5489 21.5283 41.4125 20.9733 41.1493C20.4182 40.8862 19.9285 40.503 19.5396 40.0275L10.4531 28.9163C7.67172 25.5161 6.31914 21.1689 6.68054 16.7909ZM22.3397 5.21331C19.1105 5.21467 15.9997 6.42973 13.6244 8.61747C11.2492 10.8052 9.78296 13.8058 9.51663 17.024C9.21574 20.6675 10.3413 24.2855 12.6561 27.1153L21.7425 38.2284C21.8647 38.3779 22.0186 38.4984 22.193 38.5811C22.3674 38.6638 22.5581 38.7067 22.7511 38.7067C22.9442 38.7067 23.1348 38.6638 23.3092 38.5811C23.4837 38.4984 23.6375 38.3779 23.7597 38.2284L32.8462 27.1153C35.1596 24.285 36.2837 20.667 35.9818 17.024C35.7154 13.8055 34.249 10.8046 31.8733 8.61683C29.4976 6.42904 26.3864 5.21419 23.1568 5.21331H22.3397Z" fill="black" fill-opacity="0.5"/>
</svg>
