<svg width="43" height="43" viewBox="0 0 43 43" fill="none" xmlns="http://www.w3.org/2000/svg">
<path d="M33.5023 17.6327H35.2656C35.7332 17.6327 36.1817 17.8185 36.5124 18.1491C36.8431 18.4798 37.0289 18.9283 37.0289 19.396V37.0286C37.0289 37.4963 36.8431 37.9448 36.5124 38.2755C36.1817 38.6061 35.7332 38.7919 35.2656 38.7919H7.05331C6.58566 38.7919 6.13717 38.6061 5.80649 38.2755C5.47581 37.9448 5.29004 37.4963 5.29004 37.0286V19.396C5.29004 18.9283 5.47581 18.4798 5.80649 18.1491C6.13717 17.8185 6.58566 17.6327 7.05331 17.6327H8.81658V15.8694C8.81658 12.5959 10.117 9.45643 12.4317 7.1417C14.7465 4.82696 17.8859 3.52655 21.1595 3.52655C24.433 3.52655 27.5724 4.82696 29.8872 7.1417C32.2019 9.45643 33.5023 12.5959 33.5023 15.8694V17.6327ZM29.9758 17.6327V15.8694C29.9758 13.5312 29.0469 11.2887 27.3935 9.63533C25.7402 7.98195 23.4977 7.05309 21.1595 7.05309C18.8212 7.05309 16.5787 7.98195 14.9254 9.63533C13.272 11.2887 12.3431 13.5312 12.3431 15.8694V17.6327H29.9758ZM19.3962 24.6858V31.7388H22.9227V24.6858H19.3962Z" fill="black"/>
</svg>
