<svg width="28" height="28" viewBox="0 0 28 28" fill="none" xmlns="http://www.w3.org/2000/svg">
<path d="M20.6042 19.0914C19.8643 19.0914 19.2644 18.4915 19.2644 17.7516V9.94958C19.2644 7.32004 17.1251 5.18066 14.4955 5.18066C11.8659 5.18066 9.72656 7.31998 9.72656 9.94958V14.4874C9.72656 15.2274 9.1267 15.8272 8.38672 15.8272C7.64674 15.8272 7.04688 15.2274 7.04688 14.4874V9.94958C7.04688 5.84238 10.3883 2.50098 14.4955 2.50098C18.6027 2.50098 21.9441 5.84238 21.9441 9.94958V17.7516C21.9441 18.4915 21.3442 19.0914 20.6042 19.0914Z" fill="#B1B4B5"/>
<path d="M22.6466 27.205H6.34219C4.81996 27.205 3.58594 25.971 3.58594 24.4487V15.0224C3.58594 13.5001 4.81996 12.2661 6.34219 12.2661H22.6466C24.1688 12.2661 25.4029 13.5001 25.4029 15.0224V24.4487C25.4029 25.971 24.1688 27.205 22.6466 27.205Z" fill="#FFB636"/>
<path d="M5.97832 24.9836H5.84023C5.4053 24.9836 5.05273 24.631 5.05273 24.1961V15.2748C5.05273 14.8399 5.4053 14.4873 5.84023 14.4873H5.97832C6.41325 14.4873 6.76582 14.8399 6.76582 15.2748V24.1961C6.76582 24.631 6.41325 24.9836 5.97832 24.9836Z" fill="#FFD469"/>
</svg>
