<svg width="34" height="34" viewBox="0 0 34 34" fill="none" xmlns="http://www.w3.org/2000/svg">
<rect width="34" height="34" rx="17" fill="#EBF3F6"/>
<path d="M30.8908 14.2255H29.7497V14.1667H16.9997V19.8334H25.006C23.8379 23.1321 20.6993 25.5 16.9997 25.5C12.3056 25.5 8.49967 21.6942 8.49967 17C8.49967 12.3059 12.3056 8.50004 16.9997 8.50004C19.1665 8.50004 21.1378 9.31746 22.6387 10.6527L26.6458 6.64562C24.1156 4.28758 20.7312 2.83337 16.9997 2.83337C9.17613 2.83337 2.83301 9.1765 2.83301 17C2.83301 24.8236 9.17613 31.1667 16.9997 31.1667C24.8232 31.1667 31.1663 24.8236 31.1663 17C31.1663 16.0502 31.0686 15.123 30.8908 14.2255Z" fill="#FFC107"/>
<path d="M4.46777 10.4062L9.12223 13.8196C10.3816 10.7015 13.4317 8.50004 17.001 8.50004C19.1678 8.50004 21.1391 9.31746 22.6401 10.6527L26.6471 6.64562C24.1169 4.28758 20.7325 2.83337 17.001 2.83337C11.5596 2.83337 6.84069 5.90542 4.46777 10.4062Z" fill="#FF3D00"/>
<path d="M17.0015 31.1667C20.6608 31.1667 23.9857 29.7663 26.4996 27.489L22.115 23.7788C20.6449 24.8968 18.8485 25.5015 17.0015 25.5C13.3168 25.5 10.1881 23.1505 9.0094 19.8716L4.38965 23.431C6.73423 28.0189 11.4956 31.1667 17.0015 31.1667Z" fill="#4CAF50"/>
<path d="M30.8911 14.2254H29.75V14.1667H17V19.8333H25.0063C24.4476 21.4033 23.4411 22.7752 22.1113 23.7794L22.1135 23.778L26.498 27.4883C26.1878 27.7702 31.1667 24.0833 31.1667 17C31.1667 16.0501 31.0689 15.1229 30.8911 14.2254Z" fill="#1976D2"/>
</svg>
