<svg width="117" height="49" viewBox="0 0 117 49" fill="none" xmlns="http://www.w3.org/2000/svg">
<path d="M18.0234 17.2266H15.3047V5.22656H15.2227L10.3359 17.0859H8.27344L3.38672 5.22656H3.30469V17.2266H0.574219V0.316406H4.07812L9.25781 13.0781H9.35156L14.5312 0.316406H18.0234V17.2266ZM26.0742 6.80859C24.4336 6.80859 23.25 8.0625 23.1328 9.79688H28.9336C28.875 8.03906 27.75 6.80859 26.0742 6.80859ZM28.9453 13.5117H31.6758C31.3008 15.8555 29.1211 17.4727 26.1797 17.4727C22.4531 17.4727 20.2031 15.0234 20.2031 11.0625C20.2031 7.13672 22.4766 4.54688 26.0625 4.54688C29.5898 4.54688 31.793 6.99609 31.793 10.7695V11.7188H23.1094V11.8945C23.1094 13.8867 24.3281 15.2227 26.2383 15.2227C27.5977 15.2227 28.6289 14.543 28.9453 13.5117ZM38.3203 17.4258C35.1914 17.4258 33.1641 14.9531 33.1641 11.0039C33.1641 7.07812 35.1914 4.59375 38.3203 4.59375C40.1016 4.59375 41.5078 5.51953 42.1641 6.89062H42.2344V0.316406H45.1523V17.2266H42.293V15.1055H42.2461C41.5664 16.5 40.1367 17.4258 38.3203 17.4258ZM39.1992 6.99609C37.3242 6.99609 36.1523 8.55469 36.1523 11.0156C36.1523 13.4883 37.3125 15.0352 39.1992 15.0352C41.0391 15.0352 42.2461 13.4766 42.2461 11.0156C42.2461 8.57812 41.0391 6.99609 39.1992 6.99609ZM47.6719 17.2266V4.80469H50.5898V17.2266H47.6719ZM49.125 3.17578C48.2227 3.17578 47.5078 2.47266 47.5078 1.59375C47.5078 0.703125 48.2227 0 49.125 0C50.0391 0 50.7539 0.703125 50.7539 1.59375C50.7539 2.47266 50.0391 3.17578 49.125 3.17578ZM63.9844 9.23438H61.2305C60.9961 7.91016 60.0703 6.91406 58.5117 6.91406C56.6719 6.91406 55.4883 8.46094 55.4883 11.0156C55.4883 13.6172 56.6836 15.1172 58.5352 15.1172C60.0117 15.1172 60.9727 14.2734 61.2422 12.8672H63.9961C63.7617 15.6445 61.6172 17.4727 58.5 17.4727C54.8672 17.4727 52.5234 15.0469 52.5234 11.0156C52.5234 7.04297 54.8672 4.54688 58.4766 4.54688C61.7578 4.54688 63.7852 6.62109 63.9844 9.23438ZM70.2773 15.2227C71.9297 15.2227 73.2539 14.1211 73.2539 12.6211V11.6719L70.3828 11.8477C68.9766 11.9414 68.168 12.5742 68.168 13.5586C68.168 14.5781 69.0117 15.2227 70.2773 15.2227ZM69.3984 17.4258C66.9961 17.4258 65.25 15.9141 65.25 13.6758C65.25 11.4727 66.9492 10.1484 69.9727 9.96094L73.2539 9.77344V8.88281C73.2539 7.58203 72.375 6.83203 70.9336 6.83203C69.5508 6.83203 68.6719 7.5 68.4844 8.53125H65.7773C65.9062 6.21094 67.8867 4.54688 71.0508 4.54688C74.1328 4.54688 76.1367 6.17578 76.1367 8.67188V17.2266H73.3242V15.2461H73.2656C72.5508 16.5938 70.9922 17.4258 69.3984 17.4258ZM79.3008 1.89844H82.2188V4.80469H84.5625V7.05469H82.2188V13.5117C82.2188 14.5312 82.6875 15 83.7188 15C83.9883 15 84.3633 14.9766 84.5508 14.9414V17.168C84.2344 17.2383 83.6602 17.2852 83.0391 17.2852C80.3555 17.2852 79.3008 16.3359 79.3008 13.9219V7.05469H77.5195V4.80469H79.3008V1.89844ZM86.625 17.2266V4.80469H89.543V17.2266H86.625ZM88.0781 3.17578C87.1758 3.17578 86.4609 2.47266 86.4609 1.59375C86.4609 0.703125 87.1758 0 88.0781 0C88.9922 0 89.707 0.703125 89.707 1.59375C89.707 2.47266 88.9922 3.17578 88.0781 3.17578ZM97.4883 17.4727C93.8438 17.4727 91.4766 15.0469 91.4766 11.0156C91.4766 7.00781 93.8672 4.54688 97.4883 4.54688C101.109 4.54688 103.5 6.99609 103.5 11.0156C103.5 15.0469 101.133 17.4727 97.4883 17.4727ZM97.4883 15.1641C99.3398 15.1641 100.535 13.6641 100.535 11.0156C100.535 8.37891 99.3398 6.86719 97.4883 6.86719C95.6484 6.86719 94.4414 8.37891 94.4414 11.0156C94.4414 13.6641 95.6367 15.1641 97.4883 15.1641ZM105.375 17.2266V4.80469H108.176V6.9375H108.234C108.902 5.46094 110.227 4.57031 112.137 4.57031C114.879 4.57031 116.438 6.32812 116.438 9.19922V17.2266H113.52V9.78516C113.52 8.02734 112.699 7.04297 111.035 7.04297C109.359 7.04297 108.293 8.25 108.293 10.0312V17.2266H105.375ZM7.86328 44.5078C3.03516 44.5078 0 41.1914 0 35.7656C0 30.375 3.05859 27.0352 7.86328 27.0352C11.7891 27.0352 14.7773 29.4844 15.1523 33.1172H12.1758C11.7773 30.9961 10.0547 29.6016 7.86328 29.6016C4.95703 29.6016 3.09375 31.9922 3.09375 35.7656C3.09375 39.5625 4.94531 41.9414 7.875 41.9414C10.1133 41.9414 11.7188 40.7344 12.1875 38.6953H15.1523C14.625 42.3164 11.8594 44.5078 7.86328 44.5078ZM22.6523 44.4727C19.0078 44.4727 16.6406 42.0469 16.6406 38.0156C16.6406 34.0078 19.0312 31.5469 22.6523 31.5469C26.2734 31.5469 28.6641 33.9961 28.6641 38.0156C28.6641 42.0469 26.2969 44.4727 22.6523 44.4727ZM22.6523 42.1641C24.5039 42.1641 25.6992 40.6641 25.6992 38.0156C25.6992 35.3789 24.5039 33.8672 22.6523 33.8672C20.8125 33.8672 19.6055 35.3789 19.6055 38.0156C19.6055 40.6641 20.8008 42.1641 22.6523 42.1641ZM30.5391 44.2266V31.8047H33.3398V33.9609H33.3984C33.9375 32.5195 35.25 31.5703 36.9375 31.5703C38.6953 31.5703 39.9492 32.4727 40.4062 34.0664H40.4766C41.0742 32.5312 42.5508 31.5703 44.3438 31.5703C46.793 31.5703 48.3984 33.2227 48.3984 35.707V44.2266H45.4805V36.4219C45.4805 34.8984 44.6836 34.0312 43.2539 34.0312C41.8477 34.0312 40.8867 35.0625 40.8867 36.5508V44.2266H38.0508V36.2695C38.0508 34.8867 37.207 34.0312 35.8477 34.0312C34.4414 34.0312 33.457 35.1211 33.457 36.6211V44.2266H30.5391ZM57.5625 31.5938C60.7148 31.5938 62.7188 34.043 62.7188 38.0156C62.7188 41.9766 60.7266 44.4258 57.6094 44.4258C55.8047 44.4258 54.3984 43.5586 53.7188 42.1641H53.6602V48.3164H50.7422V31.8047H53.5898V33.9492H53.6484C54.3516 32.5078 55.7578 31.5938 57.5625 31.5938ZM56.6719 42.0352C58.5586 42.0352 59.7305 40.4766 59.7305 38.0156C59.7305 35.5664 58.5586 33.9961 56.6719 33.9961C54.8555 33.9961 53.6484 35.6016 53.6367 38.0156C53.6484 40.4531 54.8555 42.0352 56.6719 42.0352ZM69.1289 42.2227C70.7812 42.2227 72.1055 41.1211 72.1055 39.6211V38.6719L69.2344 38.8477C67.8281 38.9414 67.0195 39.5742 67.0195 40.5586C67.0195 41.5781 67.8633 42.2227 69.1289 42.2227ZM68.25 44.4258C65.8477 44.4258 64.1016 42.9141 64.1016 40.6758C64.1016 38.4727 65.8008 37.1484 68.8242 36.9609L72.1055 36.7734V35.8828C72.1055 34.582 71.2266 33.832 69.7852 33.832C68.4023 33.832 67.5234 34.5 67.3359 35.5312H64.6289C64.7578 33.2109 66.7383 31.5469 69.9023 31.5469C72.9844 31.5469 74.9883 33.1758 74.9883 35.6719V44.2266H72.1758V42.2461H72.1172C71.4023 43.5938 69.8438 44.4258 68.25 44.4258ZM77.3438 44.2266V31.8047H80.1445V33.9375H80.2031C80.8711 32.4609 82.1953 31.5703 84.1055 31.5703C86.8477 31.5703 88.4062 33.3281 88.4062 36.1992V44.2266H85.4883V36.7852C85.4883 35.0273 84.668 34.043 83.0039 34.043C81.3281 34.043 80.2617 35.25 80.2617 37.0312V44.2266H77.3438ZM92.0859 48.8438C91.9219 48.8438 91.0898 48.832 90.9375 48.7969V46.4883C91.0898 46.5234 91.6055 46.5352 91.7812 46.5352C92.9883 46.5352 93.6094 46.0781 93.9375 44.9297C93.9375 44.8945 94.1133 44.2734 94.1016 44.2383L89.6836 31.8047H92.8711L95.8008 41.7422H95.8477L98.7773 31.8047H101.848L97.3594 44.7188C96.293 47.8008 94.9219 48.8438 92.0859 48.8438Z" fill="url(#paint0_linear_5_1340)"/>
<defs>
<linearGradient id="paint0_linear_5_1340" x1="-0.914062" y1="-3.55709" x2="40.1178" y2="85.6939" gradientUnits="userSpaceOnUse">
<stop stop-color="#2CBEFF"/>
<stop offset="1" stop-color="#00598D"/>
</linearGradient>
</defs>
</svg>
