<svg width="26" height="31" viewBox="0 0 26 31" fill="none" xmlns="http://www.w3.org/2000/svg">
<path d="M1.58334 25.6667C1.13473 25.6667 0.75895 25.5218 0.456006 25.2319C0.153061 24.942 0.00106102 24.5837 5.45976e-06 24.1569C-0.0010501 23.7301 0.15095 23.3718 0.456006 23.0819C0.761061 22.792 1.13684 22.6471 1.58334 22.6471H3.16667V12.0785C3.16667 9.98989 3.82639 8.13434 5.14584 6.5118C6.46528 4.88926 8.18056 3.82585 10.2917 3.32158V2.26471C10.2917 1.63563 10.5228 1.10116 10.9852 0.661298C11.4475 0.221442 12.008 0.00100997 12.6667 3.43138e-06C13.3253 -0.00100311 13.8864 0.219428 14.3498 0.661298C14.8131 1.10317 15.0438 1.63764 15.0417 2.26471V3.32158C17.1528 3.82485 18.8681 4.88825 20.1875 6.5118C21.507 8.13534 22.1667 9.99089 22.1667 12.0785V22.6471H23.75C24.1986 22.6471 24.5749 22.792 24.8789 23.0819C25.1829 23.3718 25.3344 23.7301 25.3333 24.1569C25.3323 24.5837 25.1803 24.9425 24.8773 25.2334C24.5744 25.5243 24.1986 25.6687 23.75 25.6667H1.58334ZM12.6667 30.1961C11.7958 30.1961 11.0506 29.9007 10.431 29.3099C9.81139 28.719 9.50106 28.0079 9.50001 27.1765H15.8333C15.8333 28.0069 15.5235 28.718 14.9039 29.3099C14.2843 29.9017 13.5386 30.1971 12.6667 30.1961Z" fill="#0A397B"/>
</svg>
