<svg width="50" height="50" viewBox="0 0 50 50" fill="none" xmlns="http://www.w3.org/2000/svg">
<path d="M4.1665 15.1042C4.1665 13.3084 4.87986 11.5863 6.14963 10.3165C7.41941 9.0467 9.1416 8.33334 10.9373 8.33334H39.0623C39.9515 8.33334 40.8319 8.50848 41.6534 8.84874C42.4749 9.18901 43.2213 9.68774 43.85 10.3165C44.4788 10.9452 44.9775 11.6916 45.3178 12.5131C45.658 13.3346 45.8332 14.215 45.8332 15.1042V24.4958C44.8823 23.8604 43.8232 23.4043 42.7082 23.15V21.875H19.7915V38.5417H26.2207L23.9853 40.7771C23.7245 41.0397 23.5041 41.3395 23.3311 41.6667H10.9373C9.1416 41.6667 7.41941 40.9533 6.14963 39.6835C4.87986 38.4138 4.1665 36.6916 4.1665 34.8958V15.1042ZM19.7915 18.75H42.7082V15.1042C42.7082 14.1372 42.3241 13.2099 41.6403 12.5262C40.9566 11.8425 40.0293 11.4583 39.0623 11.4583H19.7915V18.75ZM40.6248 39.5833C42.149 39.5827 43.6347 39.1045 44.873 38.2159C46.1113 37.3273 47.04 36.0729 47.5287 34.6292C48.0173 33.1855 48.0412 31.6249 47.597 30.1669C47.1529 28.7089 46.2631 27.4267 45.0525 26.5006C43.842 25.5744 42.3717 25.0509 40.8483 25.0035C39.3249 24.9562 37.8249 25.3874 36.5592 26.2366C35.2935 27.0858 34.3258 28.3103 33.792 29.7379C33.2582 31.1655 33.1851 32.7246 33.5832 34.1958C33.4698 34.2637 33.3649 34.3449 33.2707 34.4375L25.4582 42.25C25.1651 42.5428 25.0002 42.9399 24.9998 43.3542V46.3542C24.9998 47.2167 25.6998 47.9167 26.5623 47.9167H30.2082C30.4844 47.9167 30.7494 47.8069 30.9447 47.6116C31.1401 47.4162 31.2498 47.1513 31.2498 46.875V45.8333H33.3332C33.6094 45.8333 33.8744 45.7236 34.0697 45.5282C34.2651 45.3329 34.3748 45.0679 34.3748 44.7917V42.7083H36.4582C36.7344 42.7083 36.9994 42.5986 37.1947 42.4032C37.3901 42.2079 37.4998 41.9429 37.4998 41.6667V39.5833H40.6248ZM43.7498 31.25C43.7498 31.8025 43.5303 32.3324 43.1396 32.7231C42.7489 33.1138 42.219 33.3333 41.6665 33.3333C41.114 33.3333 40.5841 33.1138 40.1934 32.7231C39.8027 32.3324 39.5832 31.8025 39.5832 31.25C39.5832 30.6975 39.8027 30.1676 40.1934 29.7769C40.5841 29.3862 41.114 29.1667 41.6665 29.1667C42.219 29.1667 42.7489 29.3862 43.1396 29.7769C43.5303 30.1676 43.7498 30.6975 43.7498 31.25Z" fill="#125EB1"/>
</svg>
