<svg width="24" height="24" viewBox="0 0 24 24" fill="none" xmlns="http://www.w3.org/2000/svg">
<path d="M17.373 21.189L18.869 19.673L16.442 17.246L14.927 18.742C14.5783 19.0913 14.404 19.4993 14.404 19.966C14.404 20.4327 14.5783 20.8403 14.927 21.189C15.2757 21.5377 15.6833 21.712 16.15 21.712C16.6167 21.712 17.0243 21.5377 17.373 21.189ZM19.558 18.985L21.073 17.489C21.4217 17.1403 21.593 16.7327 21.587 16.266C21.581 15.7993 21.4033 15.3913 21.054 15.042C20.7053 14.7067 20.301 14.5357 19.841 14.529C19.381 14.5223 18.9763 14.6933 18.627 15.042L17.131 16.558L19.558 18.985ZM18.068 21.902C17.528 22.442 16.8857 22.7087 16.141 22.702C15.3957 22.6953 14.7533 22.4287 14.214 21.902C13.6867 21.362 13.42 20.7197 13.414 19.975C13.408 19.2303 13.6747 18.588 14.214 18.048L17.933 14.328C18.4597 13.8013 19.102 13.538 19.86 13.538C20.6173 13.538 21.2597 13.8013 21.787 14.328C22.327 14.868 22.597 15.5107 22.597 16.256C22.597 17.0013 22.327 17.6437 21.787 18.183L18.068 21.902ZM5.616 20C5.168 20 4.78667 19.8427 4.472 19.528C4.15733 19.2133 4 18.8323 4 18.385V5.615C4 5.16833 4.15733 4.78733 4.472 4.472C4.78667 4.15733 5.168 4 5.616 4H10.316C10.2247 3.48933 10.3467 3.02833 10.682 2.617C11.0167 2.20567 11.456 2 12 2C12.5567 2 13.0027 2.20567 13.338 2.617C13.6733 3.02833 13.789 3.48933 13.685 4H18.385C18.8317 4 19.2127 4.15733 19.528 4.472C19.8427 4.78667 20 5.168 20 5.616V10.798C19.8333 10.7787 19.6667 10.7753 19.5 10.788C19.3333 10.8007 19.1667 10.8193 19 10.844V5.616C19 5.436 18.9423 5.28833 18.827 5.173C18.7117 5.05767 18.5643 5 18.385 5H5.615C5.43567 5 5.28833 5.05767 5.173 5.173C5.05767 5.28833 5 5.436 5 5.616V18.385C5 18.5643 5.05767 18.7117 5.173 18.827C5.28833 18.9423 5.436 19 5.616 19H10.748C10.7107 19.1667 10.6857 19.3333 10.673 19.5C10.6603 19.6667 10.6637 19.8333 10.683 20H5.616ZM12 4.442C12.2167 4.442 12.396 4.37133 12.538 4.23C12.68 4.08867 12.7507 3.90933 12.75 3.692C12.7493 3.47467 12.6783 3.29567 12.537 3.155C12.3957 3.01433 12.2167 2.94333 12 2.942C11.7833 2.94067 11.6043 3.01167 11.463 3.155C11.3217 3.29833 11.2507 3.47733 11.25 3.692C11.2493 3.90667 11.3203 4.086 11.463 4.23C11.6057 4.374 11.7847 4.44467 12 4.442ZM7.5 8.731V7.731H16.5V8.731H7.5ZM7.5 12.5V11.5H16.5V11.908C16.4053 11.9787 16.318 12.0487 16.238 12.118C16.158 12.1873 16.0703 12.2697 15.975 12.365L15.841 12.5H7.5ZM7.5 16.27V15.27H13.071L12.788 15.552C12.668 15.672 12.5503 15.7917 12.435 15.911C12.3203 16.029 12.2087 16.1483 12.1 16.269L7.5 16.27Z" fill="#124461"/>
</svg>
