<svg width="42" height="42" viewBox="0 0 42 42" fill="none" xmlns="http://www.w3.org/2000/svg">
<path fill-rule="evenodd" clip-rule="evenodd" d="M6.062 6.062C3.5 8.6275 3.5 12.7505 3.5 21C3.5 29.2495 3.5 33.3743 6.062 35.9362C8.6275 38.5 12.7505 38.5 21 38.5C29.2495 38.5 33.3743 38.5 35.9362 35.9362C38.5 33.376 38.5 29.2495 38.5 21C38.5 12.7505 38.5 8.62575 35.9362 6.062C33.376 3.5 29.2495 3.5 21 3.5C12.7505 3.5 8.62575 3.5 6.062 6.062ZM24.0625 17.5C24.0625 18.2245 24.6505 18.8125 25.375 18.8125H26.5825L23.0597 22.3352C23.0191 22.376 22.9708 22.4083 22.9177 22.4304C22.8645 22.4524 22.8075 22.4638 22.75 22.4638C22.6925 22.4638 22.6355 22.4524 22.5823 22.4304C22.5292 22.4083 22.4809 22.376 22.4403 22.3352L19.6648 19.5597C19.0905 18.9859 18.3119 18.6635 17.5 18.6635C16.6881 18.6635 15.9095 18.9859 15.3352 19.5597L11.3225 23.5725C11.1935 23.6927 11.0901 23.8376 11.0184 23.9986C10.9466 24.1596 10.9081 24.3334 10.905 24.5096C10.9019 24.6858 10.9343 24.8609 11.0003 25.0243C11.0663 25.1877 11.1645 25.3362 11.2892 25.4608C11.4138 25.5854 11.5623 25.6837 11.7257 25.7497C11.8891 25.8157 12.0642 25.8481 12.2404 25.845C12.4166 25.8419 12.5904 25.8034 12.7514 25.7316C12.9124 25.6599 13.0573 25.5565 13.1775 25.4275L17.1903 21.4148C17.2309 21.374 17.2792 21.3417 17.3323 21.3196C17.3855 21.2976 17.4425 21.2862 17.5 21.2862C17.5575 21.2862 17.6145 21.2976 17.6677 21.3196C17.7208 21.3417 17.7691 21.374 17.8097 21.4148L20.5852 24.1903C21.1595 24.7641 21.9381 25.0865 22.75 25.0865C23.5619 25.0865 24.3405 24.7641 24.9148 24.1903L28.4375 20.6693V21.875C28.4375 22.2231 28.5758 22.5569 28.8219 22.8031C29.0681 23.0492 29.4019 23.1875 29.75 23.1875C30.0981 23.1875 30.4319 23.0492 30.6781 22.8031C30.9242 22.5569 31.0625 22.2231 31.0625 21.875V17.5C31.0625 17.1519 30.9242 16.8181 30.6781 16.5719C30.4319 16.3258 30.0981 16.1875 29.75 16.1875H25.375C25.0269 16.1875 24.6931 16.3258 24.4469 16.5719C24.2008 16.8181 24.0625 17.1519 24.0625 17.5Z" fill="#96AB02"/>
</svg>
