<svg width="47" height="47" viewBox="0 0 47 47" fill="none" xmlns="http://www.w3.org/2000/svg">
<path d="M21.0767 30.4441H25.7604V35.1278H21.0767V30.4441ZM21.0767 11.7093H25.7604V25.7604H21.0767V11.7093ZM23.4185 0C10.4681 0 0 10.5383 0 23.4185C0 29.6295 2.4673 35.5861 6.85913 39.9779C9.03374 42.1525 11.6154 43.8775 14.4566 45.0544C17.2979 46.2313 20.3432 46.837 23.4185 46.837C29.6295 46.837 35.5861 44.3697 39.9779 39.9779C44.3697 35.5861 46.837 29.6295 46.837 23.4185C46.837 20.3432 46.2313 17.2979 45.0544 14.4566C43.8775 11.6154 42.1525 9.03374 39.9779 6.85913C37.8033 4.68451 35.2217 2.95952 32.3804 1.78263C29.5391 0.605738 26.4939 0 23.4185 0ZM23.4185 42.1533C18.4497 42.1533 13.6845 40.1795 10.171 36.666C6.65755 33.1526 4.6837 28.3873 4.6837 23.4185C4.6837 18.4497 6.65755 13.6845 10.171 10.171C13.6845 6.65755 18.4497 4.6837 23.4185 4.6837C28.3873 4.6837 33.1526 6.65755 36.666 10.171C40.1795 13.6845 42.1533 18.4497 42.1533 23.4185C42.1533 28.3873 40.1795 33.1526 36.666 36.666C33.1526 40.1795 28.3873 42.1533 23.4185 42.1533Z" fill="black" fill-opacity="0.5"/>
</svg>
