<svg width="20" height="20" viewBox="0 0 20 20" fill="none" xmlns="http://www.w3.org/2000/svg">
<path d="M9.54549 1.59082C13.9388 1.59082 17.5 5.15207 17.5 9.54537C17.5 13.9387 13.9388 17.4999 9.54549 17.4999C5.15219 17.4999 1.59094 13.9387 1.59094 9.54537C1.59094 5.15207 5.15219 1.59082 9.54549 1.59082ZM9.54549 3.18173C7.85775 3.18173 6.23913 3.85218 5.04572 5.0456C3.8523 6.23901 3.18185 7.85762 3.18185 9.54537C3.18185 11.2331 3.8523 12.8517 5.04572 14.0451C6.23913 15.2386 7.85775 15.909 9.54549 15.909C11.2332 15.909 12.8518 15.2386 14.0453 14.0451C15.2387 12.8517 15.9091 11.2331 15.9091 9.54537C15.9091 7.85762 15.2387 6.23901 14.0453 5.0456C12.8518 3.85218 11.2332 3.18173 9.54549 3.18173ZM9.54549 4.77264C9.74032 4.77266 9.92837 4.84419 10.074 4.97366C10.2196 5.10313 10.3126 5.28153 10.3354 5.47502L10.3409 5.56809V9.21605L12.4942 11.3693C12.6369 11.5125 12.7197 11.7046 12.7259 11.9066C12.7321 12.1086 12.6611 12.3054 12.5274 12.457C12.3938 12.6085 12.2074 12.7036 12.0062 12.7227C11.8051 12.7419 11.6041 12.6838 11.4442 12.5601L11.3695 12.4941L8.9831 10.1078C8.85947 9.98402 8.78007 9.82298 8.75719 9.64957L8.75003 9.54537V5.56809C8.75003 5.35713 8.83384 5.1548 8.98302 5.00562C9.13219 4.85645 9.33452 4.77264 9.54549 4.77264Z" fill="#755409"/>
</svg>
