<svg width="38" height="38" viewBox="0 0 38 38" fill="none" xmlns="http://www.w3.org/2000/svg">
<path d="M28.9235 30.5377H29.8056C32.8863 30.5377 34.4267 28.9675 34.4267 25.842V11.4258H25.5578C24.0032 11.4258 23.1203 10.5436 23.1203 8.98768V0H15.3588C12.2781 0 10.7235 1.57021 10.7235 4.69571V5.42857H12.6669C14.7759 5.42857 16.4656 6.02707 18.141 7.70179L26.6204 16.2111C28.3101 17.9007 28.9235 19.6358 28.9235 21.6695V30.5377ZM25.857 9.55632H33.7081C33.6192 9.07725 33.305 8.65857 32.7818 8.13539L26.4101 1.64486C25.9011 1.12168 25.4533 0.792571 24.9891 0.717929L25.0041 8.68843C25.0041 9.30186 25.2436 9.55632 25.857 9.55632ZM7.80702 38H22.2538C25.3345 38 26.8891 36.4298 26.8891 33.3043V21.2657H16.0618C14.1327 21.2657 13.2356 20.3537 13.2356 18.4395V7.46225H7.80702C4.72631 7.46225 3.17102 9.03246 3.17102 12.158V33.3043C3.17102 36.4447 4.72631 38 7.80702 38ZM16.0469 19.2171H26.0966C25.9473 18.6336 25.5435 18.0955 24.8704 17.4074L17.0939 9.49661C16.4357 8.82346 15.8522 8.41971 15.2842 8.25482V18.4537C15.2842 18.9627 15.5384 19.2171 16.0469 19.2171Z" fill="#A756EB"/>
</svg>
