<svg width="42" height="42" viewBox="0 0 42 42" fill="none" xmlns="http://www.w3.org/2000/svg">
<path d="M21 3.5C30.6652 3.5 38.5 11.3348 38.5 21C38.5 30.6652 30.6652 38.5 21 38.5C11.3348 38.5 3.5 30.6652 3.5 21C3.5 11.3348 11.3348 3.5 21 3.5ZM21 7C17.287 7 13.726 8.475 11.1005 11.1005C8.475 13.726 7 17.287 7 21C7 24.713 8.475 28.274 11.1005 30.8995C13.726 33.525 17.287 35 21 35C24.713 35 28.274 33.525 30.8995 30.8995C33.525 28.274 35 24.713 35 21C35 17.287 33.525 13.726 30.8995 11.1005C28.274 8.475 24.713 7 21 7ZM21 10.5C21.4286 10.5001 21.8423 10.6574 22.1627 10.9423C22.483 11.2271 22.6876 11.6196 22.7378 12.0452L22.75 12.25V20.2755L27.4872 25.0128C27.8011 25.3277 27.9833 25.7503 27.9969 26.1947C28.0105 26.6391 27.8544 27.072 27.5603 27.4055C27.2663 27.739 26.8563 27.948 26.4137 27.9902C25.9711 28.0324 25.529 27.9045 25.1772 27.6325L25.0128 27.4872L19.7628 22.2372C19.4908 21.965 19.3161 21.6108 19.2657 21.2292L19.25 21V12.25C19.25 11.7859 19.4344 11.3408 19.7626 11.0126C20.0908 10.6844 20.5359 10.5 21 10.5Z" fill="#8D3DD0"/>
</svg>
