<svg width="17" height="17" viewBox="0 0 17 17" fill="none" xmlns="http://www.w3.org/2000/svg">
<g clip-path="url(#clip0_231_3320)">
<path d="M5.04563 4.47084L11.6199 11.0451M7.57419 1.94228C8.00377 1.50125 8.51668 1.14994 9.08313 0.908743C9.64959 0.667542 10.2583 0.541255 10.874 0.53721C11.4896 0.533165 12.0999 0.651443 12.6695 0.88518C13.2391 1.11892 13.7566 1.46345 14.1919 1.8988C14.6273 2.33414 14.9718 2.85162 15.2055 3.42119C15.4393 3.99077 15.5576 4.6011 15.5535 5.21675C15.5495 5.83241 15.4232 6.44113 15.182 7.00758C14.9408 7.57404 14.5895 8.08694 14.1484 8.51653L8.51665 14.1483C8.08706 14.5893 7.57416 14.9407 7.0077 15.1819C6.44125 15.4231 5.83253 15.5493 5.21687 15.5534C4.60122 15.5574 3.99089 15.4392 3.42132 15.2054C2.85174 14.9717 2.33426 14.6271 1.89892 14.1918C1.46358 13.7565 1.11904 13.239 0.885302 12.6694C0.651565 12.0998 0.533287 11.4895 0.537332 10.8738C0.541377 10.2582 0.667665 9.64947 0.908865 9.08301C1.15007 8.51656 1.50137 8.00365 1.9424 7.57407L7.57419 1.94228Z" stroke="#8A38F5" stroke-width="1.14934" stroke-linecap="round" stroke-linejoin="round"/>
</g>
<defs>
<clipPath id="clip0_231_3320">
<rect width="16.0908" height="16.0908" fill="white"/>
</clipPath>
</defs>
</svg>
