<svg width="44" height="44" viewBox="0 0 44 44" fill="none" xmlns="http://www.w3.org/2000/svg">
<mask id="path-1-inside-1_168_3154" fill="white">
<path d="M22.0008 8.7999C20.8338 8.7999 19.7147 9.26347 18.8895 10.0886C18.0644 10.9138 17.6008 12.0329 17.6008 13.1999C17.6008 14.3669 18.0644 15.486 18.8895 16.3112C19.7147 17.1363 20.8338 17.5999 22.0008 17.5999C23.1677 17.5999 24.2869 17.1363 25.1121 16.3112C25.9372 15.486 26.4008 14.3669 26.4008 13.1999C26.4008 12.0329 25.9372 10.9138 25.1121 10.0886C24.2869 9.26347 23.1677 8.7999 22.0008 8.7999ZM19.8008 13.1999C19.8008 12.6164 20.0326 12.0568 20.4451 11.6443C20.8577 11.2317 21.4173 10.9999 22.0008 10.9999C22.5843 10.9999 23.1438 11.2317 23.5564 11.6443C23.969 12.0568 24.2008 12.6164 24.2008 13.1999C24.2008 13.7834 23.969 14.343 23.5564 14.7555C23.1438 15.1681 22.5843 15.3999 22.0008 15.3999C21.4173 15.3999 20.8577 15.1681 20.4451 14.7555C20.0326 14.343 19.8008 13.7834 19.8008 13.1999ZM14.3008 31.8999C14.009 31.8999 13.7293 32.0158 13.523 32.2221C13.3167 32.4284 13.2008 32.7082 13.2008 32.9999C13.2008 33.2916 13.3167 33.5714 13.523 33.7777C13.7293 33.984 14.009 34.0999 14.3008 34.0999H29.7008C29.9925 34.0999 30.2723 33.984 30.4786 33.7777C30.6849 33.5714 30.8008 33.2916 30.8008 32.9999C30.8008 32.7082 30.6849 32.4284 30.4786 32.2221C30.2723 32.0158 29.9925 31.8999 29.7008 31.8999H14.3008ZM8.80078 8.7999C8.80078 7.63295 9.26435 6.51379 10.0895 5.68863C10.9147 4.86347 12.0338 4.3999 13.2008 4.3999H30.8008C31.9677 4.3999 33.0869 4.86347 33.9121 5.68863C34.7372 6.51379 35.2008 7.63295 35.2008 8.7999V35.1999C35.2008 36.3669 34.7372 37.486 33.9121 38.3112C33.0869 39.1363 31.9677 39.5999 30.8008 39.5999H13.2008C12.0338 39.5999 10.9147 39.1363 10.0895 38.3112C9.26435 37.486 8.80078 36.3669 8.80078 35.1999V8.7999ZM30.8008 6.5999H13.2008C12.6173 6.5999 12.0577 6.83169 11.6451 7.24427C11.2326 7.65685 11.0008 8.21643 11.0008 8.7999V26.3999H15.4008V21.9999C15.4008 21.4164 15.6326 20.8568 16.0451 20.4443C16.4577 20.0317 17.0173 19.7999 17.6008 19.7999H26.4008C26.9843 19.7999 27.5438 20.0317 27.9564 20.4443C28.369 20.8568 28.6008 21.4164 28.6008 21.9999V26.3999H33.0008V8.7999C33.0008 8.21643 32.769 7.65685 32.3564 7.24427C31.9438 6.83169 31.3843 6.5999 30.8008 6.5999ZM26.4008 21.9999H17.6008V26.3999H26.4008V21.9999ZM11.0008 28.5999V35.1999C11.0008 35.7834 11.2326 36.343 11.6451 36.7555C12.0577 37.1681 12.6173 37.3999 13.2008 37.3999H30.8008C31.3843 37.3999 31.9438 37.1681 32.3564 36.7555C32.769 36.343 33.0008 35.7834 33.0008 35.1999V28.5999H11.0008Z"/>
</mask>
<path d="M22.0008 8.7999C20.8338 8.7999 19.7147 9.26347 18.8895 10.0886C18.0644 10.9138 17.6008 12.0329 17.6008 13.1999C17.6008 14.3669 18.0644 15.486 18.8895 16.3112C19.7147 17.1363 20.8338 17.5999 22.0008 17.5999C23.1677 17.5999 24.2869 17.1363 25.1121 16.3112C25.9372 15.486 26.4008 14.3669 26.4008 13.1999C26.4008 12.0329 25.9372 10.9138 25.1121 10.0886C24.2869 9.26347 23.1677 8.7999 22.0008 8.7999ZM19.8008 13.1999C19.8008 12.6164 20.0326 12.0568 20.4451 11.6443C20.8577 11.2317 21.4173 10.9999 22.0008 10.9999C22.5843 10.9999 23.1438 11.2317 23.5564 11.6443C23.969 12.0568 24.2008 12.6164 24.2008 13.1999C24.2008 13.7834 23.969 14.343 23.5564 14.7555C23.1438 15.1681 22.5843 15.3999 22.0008 15.3999C21.4173 15.3999 20.8577 15.1681 20.4451 14.7555C20.0326 14.343 19.8008 13.7834 19.8008 13.1999ZM14.3008 31.8999C14.009 31.8999 13.7293 32.0158 13.523 32.2221C13.3167 32.4284 13.2008 32.7082 13.2008 32.9999C13.2008 33.2916 13.3167 33.5714 13.523 33.7777C13.7293 33.984 14.009 34.0999 14.3008 34.0999H29.7008C29.9925 34.0999 30.2723 33.984 30.4786 33.7777C30.6849 33.5714 30.8008 33.2916 30.8008 32.9999C30.8008 32.7082 30.6849 32.4284 30.4786 32.2221C30.2723 32.0158 29.9925 31.8999 29.7008 31.8999H14.3008ZM8.80078 8.7999C8.80078 7.63295 9.26435 6.51379 10.0895 5.68863C10.9147 4.86347 12.0338 4.3999 13.2008 4.3999H30.8008C31.9677 4.3999 33.0869 4.86347 33.9121 5.68863C34.7372 6.51379 35.2008 7.63295 35.2008 8.7999V35.1999C35.2008 36.3669 34.7372 37.486 33.9121 38.3112C33.0869 39.1363 31.9677 39.5999 30.8008 39.5999H13.2008C12.0338 39.5999 10.9147 39.1363 10.0895 38.3112C9.26435 37.486 8.80078 36.3669 8.80078 35.1999V8.7999ZM30.8008 6.5999H13.2008C12.6173 6.5999 12.0577 6.83169 11.6451 7.24427C11.2326 7.65685 11.0008 8.21643 11.0008 8.7999V26.3999H15.4008V21.9999C15.4008 21.4164 15.6326 20.8568 16.0451 20.4443C16.4577 20.0317 17.0173 19.7999 17.6008 19.7999H26.4008C26.9843 19.7999 27.5438 20.0317 27.9564 20.4443C28.369 20.8568 28.6008 21.4164 28.6008 21.9999V26.3999H33.0008V8.7999C33.0008 8.21643 32.769 7.65685 32.3564 7.24427C31.9438 6.83169 31.3843 6.5999 30.8008 6.5999ZM26.4008 21.9999H17.6008V26.3999H26.4008V21.9999ZM11.0008 28.5999V35.1999C11.0008 35.7834 11.2326 36.343 11.6451 36.7555C12.0577 37.1681 12.6173 37.3999 13.2008 37.3999H30.8008C31.3843 37.3999 31.9438 37.1681 32.3564 36.7555C32.769 36.343 33.0008 35.7834 33.0008 35.1999V28.5999H11.0008Z" fill="#138015"/>
<path d="M22.0008 8.7999L22.0008 4.7999L22.0008 8.7999ZM17.6008 13.1999H13.6008H17.6008ZM22.0008 17.5999V21.5999V17.5999ZM22.0008 10.9999V14.9999V10.9999ZM13.2008 4.3999V0.399902V4.3999ZM30.8008 4.3999V0.399902V4.3999ZM8.80078 35.1999H4.80078H8.80078ZM30.8008 6.5999V2.5999V6.5999ZM13.2008 6.5999V2.5999V6.5999ZM11.0008 26.3999H7.00078V30.3999H11.0008V26.3999ZM15.4008 26.3999V30.3999H19.4008V26.3999H15.4008ZM28.6008 26.3999H24.6008V30.3999H28.6008V26.3999ZM33.0008 26.3999V30.3999H37.0008V26.3999H33.0008ZM26.4008 21.9999H30.4008V17.9999H26.4008V21.9999ZM17.6008 21.9999V17.9999H13.6008V21.9999H17.6008ZM17.6008 26.3999H13.6008V30.3999H17.6008V26.3999ZM26.4008 26.3999V30.3999H30.4008V26.3999H26.4008ZM11.0008 28.5999V24.5999H7.00078V28.5999H11.0008ZM11.6451 36.7555L8.81672 39.584L11.6451 36.7555ZM32.3564 36.7555L35.1848 39.584L32.3564 36.7555ZM33.0008 28.5999H37.0008V24.5999H33.0008V28.5999ZM22.0008 8.7999L22.0008 4.7999C19.773 4.7999 17.6364 5.6849 16.0611 7.26021L18.8895 10.0886L21.7179 12.9171C21.793 12.842 21.8947 12.7999 22.0008 12.7999V8.7999ZM18.8895 10.0886L16.0611 7.26021C14.4858 8.83551 13.6008 10.9721 13.6008 13.1999H17.6008H21.6008C21.6008 13.0938 21.6429 12.9921 21.7179 12.9171L18.8895 10.0886ZM17.6008 13.1999H13.6008C13.6008 15.4277 14.4858 17.5643 16.0611 19.1396L18.8895 16.3112L21.7179 13.4827C21.6429 13.4077 21.6008 13.306 21.6008 13.1999H17.6008ZM18.8895 16.3112L16.0611 19.1396C17.6364 20.7149 19.773 21.5999 22.0008 21.5999L22.0008 17.5999V13.5999C21.8947 13.5999 21.793 13.5578 21.7179 13.4827L18.8895 16.3112ZM22.0008 17.5999V21.5999C24.2286 21.5999 26.3652 20.7149 27.9405 19.1396L25.1121 16.3112L22.2836 13.4827C22.2086 13.5578 22.1069 13.5999 22.0008 13.5999L22.0008 17.5999ZM25.1121 16.3112L27.9405 19.1396C29.5158 17.5643 30.4008 15.4277 30.4008 13.1999H26.4008H22.4008C22.4008 13.306 22.3586 13.4077 22.2836 13.4827L25.1121 16.3112ZM26.4008 13.1999H30.4008C30.4008 10.9721 29.5158 8.83551 27.9405 7.26021L25.1121 10.0886L22.2836 12.9171C22.3586 12.9921 22.4008 13.0938 22.4008 13.1999H26.4008ZM25.1121 10.0886L27.9405 7.26021C26.3652 5.6849 24.2286 4.7999 22.0008 4.7999V8.7999L22.0008 12.7999C22.1069 12.7999 22.2086 12.842 22.2836 12.9171L25.1121 10.0886ZM19.8008 13.1999H23.8008C23.8008 13.6773 23.6111 14.1351 23.2736 14.4727L20.4451 11.6443L17.6167 8.81584C16.454 9.97856 15.8008 11.5556 15.8008 13.1999H19.8008ZM20.4451 11.6443L23.2736 14.4727C22.936 14.8103 22.4782 14.9999 22.0008 14.9999L22.0008 10.9999V6.9999C20.3564 6.9999 18.7794 7.65312 17.6167 8.81584L20.4451 11.6443ZM22.0008 10.9999V14.9999C21.5234 14.9999 21.0656 14.8103 20.728 14.4727L23.5564 11.6443L26.3848 8.81584C25.2221 7.65312 23.6451 6.9999 22.0008 6.9999L22.0008 10.9999ZM23.5564 11.6443L20.728 14.4727C20.3904 14.1351 20.2008 13.6773 20.2008 13.1999H24.2008H28.2008C28.2008 11.5556 27.5476 9.97856 26.3848 8.81584L23.5564 11.6443ZM24.2008 13.1999H20.2008C20.2008 12.7225 20.3904 12.2647 20.728 11.9271L23.5564 14.7555L26.3848 17.584C27.5476 16.4212 28.2008 14.8442 28.2008 13.1999H24.2008ZM23.5564 14.7555L20.728 11.9271C21.0656 11.5895 21.5234 11.3999 22.0008 11.3999V15.3999V19.3999C23.6451 19.3999 25.2221 18.7467 26.3848 17.584L23.5564 14.7555ZM22.0008 15.3999V11.3999C22.4782 11.3999 22.936 11.5895 23.2736 11.9271L20.4451 14.7555L17.6167 17.584C18.7794 18.7467 20.3564 19.3999 22.0008 19.3999V15.3999ZM20.4451 14.7555L23.2736 11.9271C23.6111 12.2647 23.8008 12.7225 23.8008 13.1999H19.8008H15.8008C15.8008 14.8442 16.454 16.4212 17.6167 17.584L20.4451 14.7555ZM14.3008 31.8999V27.8999C12.9482 27.8999 11.651 28.4372 10.6945 29.3937L13.523 32.2221L16.3514 35.0505C15.8075 35.5944 15.0699 35.8999 14.3008 35.8999V31.8999ZM13.523 32.2221L10.6945 29.3937C9.7381 30.3501 9.20078 31.6473 9.20078 32.9999H13.2008H17.2008C17.2008 33.769 16.8952 34.5067 16.3514 35.0505L13.523 32.2221ZM13.2008 32.9999H9.20078C9.20078 34.3525 9.7381 35.6497 10.6945 36.6061L13.523 33.7777L16.3514 30.9493C16.8952 31.4932 17.2008 32.2308 17.2008 32.9999H13.2008ZM13.523 33.7777L10.6945 36.6061C11.651 37.5626 12.9482 38.0999 14.3008 38.0999V34.0999V30.0999C15.0699 30.0999 15.8075 30.4054 16.3514 30.9493L13.523 33.7777ZM14.3008 34.0999V38.0999H29.7008V34.0999V30.0999H14.3008V34.0999ZM29.7008 34.0999V38.0999C31.0534 38.0999 32.3506 37.5626 33.307 36.6061L30.4786 33.7777L27.6502 30.9493C28.194 30.4054 28.9317 30.0999 29.7008 30.0999V34.0999ZM30.4786 33.7777L33.307 36.6061C34.2635 35.6497 34.8008 34.3525 34.8008 32.9999H30.8008H26.8008C26.8008 32.2308 27.1063 31.4932 27.6502 30.9493L30.4786 33.7777ZM30.8008 32.9999H34.8008C34.8008 31.6473 34.2635 30.3501 33.307 29.3937L30.4786 32.2221L27.6502 35.0505C27.1063 34.5066 26.8008 33.769 26.8008 32.9999H30.8008ZM30.4786 32.2221L33.307 29.3937C32.3506 28.4372 31.0534 27.8999 29.7008 27.8999V31.8999V35.8999C28.9317 35.8999 28.194 35.5944 27.6502 35.0505L30.4786 32.2221ZM29.7008 31.8999V27.8999H14.3008V31.8999V35.8999H29.7008V31.8999ZM8.80078 8.7999H12.8008C12.8008 8.69382 12.8429 8.59207 12.9179 8.51706L10.0895 5.68863L7.26108 2.86021C5.68578 4.43551 4.80078 6.57208 4.80078 8.7999H8.80078ZM10.0895 5.68863L12.9179 8.51706C12.993 8.44205 13.0947 8.3999 13.2008 8.3999V4.3999V0.399902C10.973 0.399902 8.83639 1.2849 7.26108 2.86021L10.0895 5.68863ZM13.2008 4.3999V8.3999H30.8008V4.3999V0.399902H13.2008V4.3999ZM30.8008 4.3999V8.3999C30.9069 8.3999 31.0086 8.44204 31.0836 8.51706L33.9121 5.68863L36.7405 2.86021C35.1652 1.2849 33.0286 0.399902 30.8008 0.399902V4.3999ZM33.9121 5.68863L31.0836 8.51706C31.1586 8.59208 31.2008 8.69382 31.2008 8.7999H35.2008H39.2008C39.2008 6.57208 38.3158 4.43551 36.7405 2.86021L33.9121 5.68863ZM35.2008 8.7999H31.2008V35.1999H35.2008H39.2008V8.7999H35.2008ZM35.2008 35.1999H31.2008C31.2008 35.306 31.1586 35.4077 31.0836 35.4827L33.9121 38.3112L36.7405 41.1396C38.3158 39.5643 39.2008 37.4277 39.2008 35.1999H35.2008ZM33.9121 38.3112L31.0836 35.4827C31.0086 35.5578 30.9069 35.5999 30.8008 35.5999V39.5999V43.5999C33.0286 43.5999 35.1652 42.7149 36.7405 41.1396L33.9121 38.3112ZM30.8008 39.5999V35.5999H13.2008V39.5999V43.5999H30.8008V39.5999ZM13.2008 39.5999V35.5999C13.0947 35.5999 12.993 35.5578 12.9179 35.4827L10.0895 38.3112L7.26108 41.1396C8.83639 42.7149 10.973 43.5999 13.2008 43.5999V39.5999ZM10.0895 38.3112L12.9179 35.4827C12.8429 35.4077 12.8008 35.306 12.8008 35.1999H8.80078H4.80078C4.80078 37.4277 5.68578 39.5643 7.26108 41.1396L10.0895 38.3112ZM8.80078 35.1999H12.8008V8.7999H8.80078H4.80078V35.1999H8.80078ZM30.8008 6.5999V2.5999H13.2008V6.5999V10.5999H30.8008V6.5999ZM13.2008 6.5999V2.5999C11.5564 2.5999 9.97944 3.25311 8.81672 4.41584L11.6451 7.24427L14.4736 10.0727C14.136 10.4103 13.6782 10.5999 13.2008 10.5999V6.5999ZM11.6451 7.24427L8.81672 4.41584C7.654 5.57856 7.00078 7.15556 7.00078 8.7999H11.0008H15.0008C15.0008 9.27729 14.8111 9.73513 14.4736 10.0727L11.6451 7.24427ZM11.0008 8.7999H7.00078V26.3999H11.0008H15.0008V8.7999H11.0008ZM11.0008 26.3999V30.3999H15.4008V26.3999V22.3999H11.0008V26.3999ZM15.4008 26.3999H19.4008V21.9999H15.4008H11.4008V26.3999H15.4008ZM15.4008 21.9999H19.4008C19.4008 22.4773 19.2111 22.9351 18.8736 23.2727L16.0451 20.4443L13.2167 17.6158C12.054 18.7786 11.4008 20.3556 11.4008 21.9999H15.4008ZM16.0451 20.4443L18.8736 23.2727C18.536 23.6103 18.0782 23.7999 17.6008 23.7999V19.7999V15.7999C15.9564 15.7999 14.3794 16.4531 13.2167 17.6158L16.0451 20.4443ZM17.6008 19.7999V23.7999H26.4008V19.7999V15.7999H17.6008V19.7999ZM26.4008 19.7999V23.7999C25.9234 23.7999 25.4656 23.6103 25.128 23.2727L27.9564 20.4443L30.7848 17.6158C29.6221 16.4531 28.0451 15.7999 26.4008 15.7999V19.7999ZM27.9564 20.4443L25.128 23.2727C24.7904 22.9351 24.6008 22.4773 24.6008 21.9999H28.6008H32.6008C32.6008 20.3556 31.9476 18.7786 30.7848 17.6158L27.9564 20.4443ZM28.6008 21.9999H24.6008V26.3999H28.6008H32.6008V21.9999H28.6008ZM28.6008 26.3999V30.3999H33.0008V26.3999V22.3999H28.6008V26.3999ZM33.0008 26.3999H37.0008V8.7999H33.0008H29.0008V26.3999H33.0008ZM33.0008 8.7999H37.0008C37.0008 7.15556 36.3476 5.57856 35.1848 4.41584L32.3564 7.24427L29.528 10.0727C29.1904 9.73513 29.0008 9.27729 29.0008 8.7999H33.0008ZM32.3564 7.24427L35.1848 4.41584C34.0221 3.25311 32.4451 2.5999 30.8008 2.5999V6.5999V10.5999C30.3234 10.5999 29.8656 10.4103 29.528 10.0727L32.3564 7.24427ZM26.4008 21.9999V17.9999H17.6008V21.9999V25.9999H26.4008V21.9999ZM17.6008 21.9999H13.6008V26.3999H17.6008H21.6008V21.9999H17.6008ZM17.6008 26.3999V30.3999H26.4008V26.3999V22.3999H17.6008V26.3999ZM26.4008 26.3999H30.4008V21.9999H26.4008H22.4008V26.3999H26.4008ZM11.0008 28.5999H7.00078V35.1999H11.0008H15.0008V28.5999H11.0008ZM11.0008 35.1999H7.00078C7.00078 36.8442 7.65399 38.4212 8.81672 39.584L11.6451 36.7555L14.4736 33.9271C14.8111 34.2647 15.0008 34.7225 15.0008 35.1999H11.0008ZM11.6451 36.7555L8.81672 39.584C9.97945 40.7467 11.5564 41.3999 13.2008 41.3999V37.3999V33.3999C13.6782 33.3999 14.136 33.5895 14.4736 33.9271L11.6451 36.7555ZM13.2008 37.3999V41.3999H30.8008V37.3999V33.3999H13.2008V37.3999ZM30.8008 37.3999V41.3999C32.4451 41.3999 34.0221 40.7467 35.1848 39.584L32.3564 36.7555L29.528 33.9271C29.8656 33.5895 30.3234 33.3999 30.8008 33.3999V37.3999ZM32.3564 36.7555L35.1848 39.584C36.3476 38.4212 37.0008 36.8442 37.0008 35.1999H33.0008H29.0008C29.0008 34.7225 29.1904 34.2647 29.528 33.9271L32.3564 36.7555ZM33.0008 35.1999H37.0008V28.5999H33.0008H29.0008V35.1999H33.0008ZM33.0008 28.5999V24.5999H11.0008V28.5999V32.5999H33.0008V28.5999Z" fill="#138015" mask="url(#path-1-inside-1_168_3154)"/>
</svg>
