<svg width="44" height="44" viewBox="0 0 44 44" fill="none" xmlns="http://www.w3.org/2000/svg">
<path d="M31.075 37.8582L33.1833 35.7499L30.25 32.8166L28.1417 34.9249C27.7139 35.3527 27.5 35.8416 27.5 36.3916C27.5 36.9416 27.7139 37.4305 28.1417 37.8582C28.5694 38.286 29.0583 38.4999 29.6083 38.4999C30.1583 38.4999 30.6472 38.286 31.075 37.8582ZM35.75 33.1833L37.8583 31.0749C38.2861 30.6471 38.5 30.1583 38.5 29.6082C38.5 29.0583 38.2861 28.5694 37.8583 28.1416C37.4306 27.7138 36.9417 27.4999 36.3917 27.4999C35.8417 27.4999 35.3528 27.7138 34.925 28.1416L32.8167 30.2499L35.75 33.1833ZM33.6875 40.4708C32.5569 41.6013 31.1972 42.1666 29.6083 42.1666C28.0194 42.1666 26.6597 41.6013 25.5292 40.4708C24.3986 39.3402 23.8333 37.9805 23.8333 36.3916C23.8333 34.8027 24.3986 33.443 25.5292 32.3124L32.3125 25.5291C33.4431 24.3985 34.8028 23.8333 36.3917 23.8333C37.9806 23.8333 39.3403 24.3985 40.4708 25.5291C41.6014 26.6596 42.1667 28.0194 42.1667 29.6082C42.1667 31.1971 41.6014 32.5569 40.4708 33.6874L33.6875 40.4708ZM9.16667 38.4999C8.15833 38.4999 7.29544 38.1412 6.578 37.4238C5.86056 36.7063 5.50122 35.8428 5.5 34.8333V9.16658C5.5 8.15825 5.85933 7.29536 6.578 6.57792C7.29667 5.86047 8.15956 5.50114 9.16667 5.49992H16.8667C17.2639 4.39992 17.9288 3.51381 18.8613 2.84159C19.7939 2.16936 20.8401 1.83325 22 1.83325C23.1599 1.83325 24.2067 2.16936 25.1405 2.84159C26.0743 3.51381 26.7386 4.39992 27.1333 5.49992H34.8333C35.8417 5.49992 36.7052 5.85925 37.4238 6.57792C38.1425 7.29659 38.5012 8.15947 38.5 9.16658V20.3958C37.8889 20.243 37.2778 20.1666 36.6667 20.1666C36.0556 20.1666 35.4444 20.2124 34.8333 20.3041V9.16658H9.16667V34.8333H20.3042C20.2125 35.4444 20.1667 36.0555 20.1667 36.6666C20.1667 37.2777 20.2431 37.8888 20.3958 38.4999H9.16667ZM22 7.79158C22.3972 7.79158 22.726 7.66142 22.9863 7.40109C23.2467 7.14075 23.3762 6.81258 23.375 6.41658C23.3738 6.02059 23.2436 5.69242 22.9845 5.43209C22.7254 5.17175 22.3972 5.04159 22 5.04159C21.6028 5.04159 21.2746 5.17175 21.0155 5.43209C20.7564 5.69242 20.6262 6.02059 20.625 6.41658C20.6238 6.81258 20.7539 7.14136 21.0155 7.40292C21.2771 7.66447 21.6052 7.79403 22 7.79158ZM12.8333 16.4999V12.8333H31.1667V16.4999H12.8333ZM12.8333 23.8333V20.1666H31.1667V21.7249C30.9222 21.8777 30.6857 22.0537 30.4572 22.2529C30.2286 22.4521 29.9915 22.6734 29.7458 22.9166L28.8292 23.8333H12.8333ZM12.8333 31.1666V27.4999H25.1625L22.9167 29.7458C22.6722 29.9902 22.451 30.2273 22.253 30.4571C22.055 30.6869 21.879 30.9234 21.725 31.1666H12.8333Z" fill="#114EA3"/>
</svg>
