<svg width="40" height="40" viewBox="0 0 40 40" fill="none" xmlns="http://www.w3.org/2000/svg">
<path fill-rule="evenodd" clip-rule="evenodd" d="M15.8567 5.00022C16.2163 5.00522 16.5646 5.12641 16.8497 5.34569C17.1348 5.56497 17.3413 5.87059 17.4383 6.21689L23.56 27.9836L26.7733 19.4152C26.8924 19.0976 27.1055 18.8239 27.3843 18.6306C27.663 18.4373 27.9941 18.3337 28.3333 18.3336H33.3333C33.7754 18.3336 34.1993 18.5092 34.5118 18.8217C34.8244 19.1343 35 19.5582 35 20.0002C35 20.4423 34.8244 20.8662 34.5118 21.1787C34.1993 21.4913 33.7754 21.6669 33.3333 21.6669H29.4883L24.8933 33.9186C24.77 34.2475 24.546 34.5291 24.2531 34.7231C23.9602 34.9171 23.6135 35.0136 23.2625 34.9989C22.9115 34.9841 22.5742 34.8588 22.2986 34.6408C22.0231 34.4228 21.8235 34.1234 21.7283 33.7852L15.75 12.5236L13.2567 20.4969C13.1508 20.8359 12.9395 21.1322 12.6535 21.3426C12.3675 21.5531 12.0218 21.6667 11.6667 21.6669H6.66667C6.22464 21.6669 5.80072 21.4913 5.48816 21.1787C5.17559 20.8662 5 20.4423 5 20.0002C5 19.5582 5.17559 19.1343 5.48816 18.8217C5.80072 18.5092 6.22464 18.3336 6.66667 18.3336H10.4417L14.2417 6.17022C14.3489 5.82659 14.5645 5.52691 14.8562 5.31601C15.1479 5.10511 15.5001 4.99432 15.86 5.00022H15.8567Z" fill="#9442D8"/>
</svg>
