<svg width="44" height="44" viewBox="0 0 44 44" fill="none" xmlns="http://www.w3.org/2000/svg">
<path d="M21.9993 20.1667C24.4305 20.1667 26.7621 21.1325 28.4812 22.8516C30.2002 24.5707 31.166 26.9023 31.166 29.3334V40.3334H27.4993V29.3334C27.4994 27.9305 26.9634 26.5806 26.001 25.5599C25.0386 24.5392 23.7225 23.9249 22.322 23.8426L21.9993 23.8334C20.5965 23.8333 19.2466 24.3693 18.2259 25.3318C17.2052 26.2942 16.5908 27.6103 16.5085 29.0107L16.4993 29.3334V40.3334H12.8327V29.3334C12.8327 26.9023 13.7985 24.5707 15.5175 22.8516C17.2366 21.1325 19.5682 20.1667 21.9993 20.1667ZM10.0827 25.6667C10.596 25.668 11.091 25.7254 11.5677 25.8391C11.2554 26.7726 11.0698 27.7437 11.0158 28.7266L10.9993 29.3334V29.4911C10.7886 29.4158 10.5694 29.3666 10.3467 29.3444L10.0827 29.3334C9.39935 29.3334 8.74049 29.5878 8.23449 30.047C7.72848 30.5063 7.41157 31.1374 7.34552 31.8176L7.33268 32.0834V40.3334H3.66602V32.0834C3.66602 30.3816 4.34206 28.7495 5.54541 27.5461C6.74877 26.3428 8.38088 25.6667 10.0827 25.6667ZM33.916 25.6667C35.6178 25.6667 37.2499 26.3428 38.4533 27.5461C39.6566 28.7495 40.3327 30.3816 40.3327 32.0834V40.3334H36.666V32.0834C36.666 31.4001 36.4116 30.7412 35.9524 30.2352C35.4932 29.7292 34.862 29.4123 34.1819 29.3462L33.916 29.3334C33.5933 29.3346 33.2878 29.3866 32.9993 29.4892V29.3334C32.9993 28.1124 32.8013 26.9391 32.4347 25.8427C32.9077 25.7272 33.4063 25.6667 33.916 25.6667ZM10.0827 14.6667C11.2983 14.6667 12.464 15.1496 13.3236 16.0092C14.1831 16.8687 14.666 18.0345 14.666 19.2501C14.666 20.4657 14.1831 21.6314 13.3236 22.491C12.464 23.3505 11.2983 23.8334 10.0827 23.8334C8.86711 23.8334 7.70132 23.3505 6.84178 22.491C5.98223 21.6314 5.49935 20.4657 5.49935 19.2501C5.49935 18.0345 5.98223 16.8687 6.84178 16.0092C7.70132 15.1496 8.86711 14.6667 10.0827 14.6667ZM33.916 14.6667C35.1316 14.6667 36.2974 15.1496 37.1569 16.0092C38.0165 16.8687 38.4994 18.0345 38.4994 19.2501C38.4994 20.4657 38.0165 21.6314 37.1569 22.491C36.2974 23.3505 35.1316 23.8334 33.916 23.8334C32.7004 23.8334 31.5347 23.3505 30.6751 22.491C29.8156 21.6314 29.3327 20.4657 29.3327 19.2501C29.3327 18.0345 29.8156 16.8687 30.6751 16.0092C31.5347 15.1496 32.7004 14.6667 33.916 14.6667ZM10.0827 18.3334C9.83957 18.3334 9.60641 18.43 9.4345 18.6019C9.26259 18.7738 9.16602 19.007 9.16602 19.2501C9.16602 19.4932 9.26259 19.7264 9.4345 19.8983C9.60641 20.0702 9.83957 20.1667 10.0827 20.1667C10.3258 20.1667 10.559 20.0702 10.7309 19.8983C10.9028 19.7264 10.9993 19.4932 10.9993 19.2501C10.9993 19.007 10.9028 18.7738 10.7309 18.6019C10.559 18.43 10.3258 18.3334 10.0827 18.3334ZM33.916 18.3334C33.6729 18.3334 33.4397 18.43 33.2678 18.6019C33.0959 18.7738 32.9993 19.007 32.9993 19.2501C32.9993 19.4932 33.0959 19.7264 33.2678 19.8983C33.4397 20.0702 33.6729 20.1667 33.916 20.1667C34.1591 20.1667 34.3923 20.0702 34.5642 19.8983C34.7361 19.7264 34.8327 19.4932 34.8327 19.2501C34.8327 19.007 34.7361 18.7738 34.5642 18.6019C34.3923 18.43 34.1591 18.3334 33.916 18.3334ZM21.9993 3.66675C23.9443 3.66675 25.8095 4.43937 27.1848 5.81463C28.5601 7.1899 29.3327 9.05516 29.3327 11.0001C29.3327 12.945 28.5601 14.8103 27.1848 16.1855C25.8095 17.5608 23.9443 18.3334 21.9993 18.3334C20.0544 18.3334 18.1892 17.5608 16.8139 16.1855C15.4386 14.8103 14.666 12.945 14.666 11.0001C14.666 9.05516 15.4386 7.1899 16.8139 5.81463C18.1892 4.43937 20.0544 3.66675 21.9993 3.66675ZM21.9993 7.33341C21.0269 7.33341 20.0943 7.71972 19.4066 8.40736C18.719 9.09499 18.3327 10.0276 18.3327 11.0001C18.3327 11.9725 18.719 12.9052 19.4066 13.5928C20.0943 14.2804 21.0269 14.6667 21.9993 14.6667C22.9718 14.6667 23.9044 14.2804 24.5921 13.5928C25.2797 12.9052 25.666 11.9725 25.666 11.0001C25.666 10.0276 25.2797 9.09499 24.5921 8.40736C23.9044 7.71972 22.9718 7.33341 21.9993 7.33341Z" fill="#71520A"/>
</svg>
