<svg width="28" height="28" viewBox="0 0 28 28" fill="none" xmlns="http://www.w3.org/2000/svg">
<path d="M22.9469 7.6043C22.8898 7.42877 22.7786 7.27579 22.6293 7.16726C22.48 7.05872 22.3002 7.00017 22.1156 7H20.125V3.9375C20.125 3.45352 19.734 3.0625 19.25 3.0625H8.75C8.26602 3.0625 7.875 3.45352 7.875 3.9375V7H5.88437C5.69969 6.99975 5.51969 7.05813 5.37031 7.16673C5.22092 7.27533 5.10986 7.42854 5.05313 7.6043L3.0625 13.7266V24.0625C3.0625 24.5465 3.45352 24.9375 3.9375 24.9375H24.0625C24.5465 24.9375 24.9375 24.5465 24.9375 24.0625V13.7266L22.9469 7.6043ZM9.84375 5.03125H18.1562V7H9.84375V5.03125ZM22.9688 22.9688H5.03125V14.0383L6.68008 8.96875H21.3199L22.9688 14.0383V22.9688ZM17.8281 15.6406H14.875V12.6875C14.875 12.5672 14.7766 12.4688 14.6562 12.4688H13.3438C13.2234 12.4688 13.125 12.5672 13.125 12.6875V15.6406H10.1719C10.0516 15.6406 9.95312 15.7391 9.95312 15.8594V17.1719C9.95312 17.2922 10.0516 17.3906 10.1719 17.3906H13.125V20.3438C13.125 20.4641 13.2234 20.5625 13.3438 20.5625H14.6562C14.7766 20.5625 14.875 20.4641 14.875 20.3438V17.3906H17.8281C17.9484 17.3906 18.0469 17.2922 18.0469 17.1719V15.8594C18.0469 15.7391 17.9484 15.6406 17.8281 15.6406Z" fill="white"/>
</svg>
