<svg
  xmlns="http://www.w3.org/2000/svg"
  width="24"
  height="24"
  viewBox="0 0 24 24"
  fill="none"
>
  <path
    d="M12 15.5C13.933 15.5 15.5 13.933 15.5 12C15.5 10.067 13.933 8.5 12 8.5C10.067 8.5 8.5 10.067 8.5 12C8.5 13.933 10.067 15.5 12 15.5Z"
    stroke="#000000"
    stroke-width="2"
    stroke-linecap="round"
    stroke-linejoin="round"
  />
  <path
    d="M19.4 15C19.6 14.4 19.7 13.7 19.7 13C19.7 12.3 19.6 11.6 19.4 11L21 9.7L19.3 6.7L17.4 7.2C16.9 6.7 16.3 6.3 15.7 6L15.4 4H8.6L8.3 6C7.7 6.3 7.1 6.7 6.6 7.2L4.7 6.7L3 9.7L4.6 11C4.4 11.6 4.3 12.3 4.3 13C4.3 13.7 4.4 14.4 4.6 15L3 16.3L4.7 19.3L6.6 18.8C7.1 19.3 7.7 19.7 8.3 20L8.6 22H15.4L15.7 20C16.3 19.7 16.9 19.3 17.4 18.8L19.3 19.3L21 16.3L19.4 15Z"
    stroke="#000000"
    stroke-width="2"
    stroke-linecap="round"
    stroke-linejoin="round"
  />
</svg>
