<svg width="50" height="50" viewBox="0 0 50 50" fill="none" xmlns="http://www.w3.org/2000/svg">
<path fill-rule="evenodd" clip-rule="evenodd" d="M24.5336 0C10.9842 0 0 10.9842 0 24.5336C0 38.0831 10.9842 49.0674 24.5336 49.0674C38.0831 49.0674 49.0674 38.0831 49.0674 24.5336C49.0674 10.9842 38.0833 0 24.5336 0ZM24.5336 44.1606C13.7114 44.1606 4.90678 35.356 4.90678 24.5336C4.90678 13.7113 13.7113 4.90678 24.5336 4.90678C35.356 4.90678 44.1606 13.7113 44.1606 24.5336C44.1606 35.356 35.356 44.1606 24.5336 44.1606ZM33.7724 15.7683L37.2417 19.2376L22.0803 34.4624L12.9856 25.3678L16.4548 21.8985L22.0803 27.524L33.7724 15.7683Z" fill="#0B8C21"/>
</svg>
