<svg width="38" height="38" viewBox="0 0 38 38" fill="none" xmlns="http://www.w3.org/2000/svg">
<path d="M24.86 29.5585V11.1393C24.86 10.4195 24.574 9.72907 24.065 9.22004C23.556 8.71102 22.8656 8.42505 22.1457 8.42505H4.61956C3.89969 8.42505 3.2093 8.71102 2.70027 9.22004C2.19124 9.72907 1.90527 10.4195 1.90527 11.1393V29.1242C1.90527 29.8441 2.19124 30.5345 2.70027 31.0435C3.2093 31.5525 3.89969 31.8385 4.61956 31.8385H6.65527M36.0944 21.2718H24.8627M32.441 31.3309H33.3774C34.0973 31.3309 34.7877 31.0449 35.2967 30.5359C35.8057 30.0269 36.0917 29.3365 36.0917 28.6166V20.4738L32.3107 12.7299C32.0873 12.2739 31.7404 11.8897 31.3095 11.621C30.8787 11.3523 30.3811 11.2099 29.8733 11.2099H25.3486" stroke="#093C7F" stroke-width="3" stroke-linecap="round" stroke-linejoin="round"/>
<path d="M23.2803 31.8386H15.3084M6.79102 31.92C6.79102 32.9249 7.19023 33.8887 7.90083 34.5993C8.61143 35.3099 9.57521 35.7091 10.5802 35.7091C11.5851 35.7091 12.5489 35.3099 13.2595 34.5993C13.9701 33.8887 14.3693 32.9249 14.3693 31.92C14.3693 30.9151 13.9701 29.9513 13.2595 29.2407C12.5489 28.5301 11.5851 28.1309 10.5802 28.1309C9.57521 28.1309 8.61143 28.5301 7.90083 29.2407C7.19023 29.9513 6.79102 30.9151 6.79102 31.92ZM23.9914 31.92C23.9914 32.4176 24.0895 32.9103 24.2799 33.37C24.4703 33.8298 24.7494 34.2475 25.1013 34.5993C25.4531 34.9512 25.8708 35.2303 26.3305 35.4207C26.7903 35.6111 27.283 35.7091 27.7806 35.7091C28.2782 35.7091 28.7709 35.6111 29.2306 35.4207C29.6903 35.2303 30.1081 34.9512 30.4599 34.5993C30.8118 34.2475 31.0909 33.8298 31.2813 33.37C31.4717 32.9103 31.5697 32.4176 31.5697 31.92C31.5697 31.4224 31.4717 30.9297 31.2813 30.47C31.0909 30.0102 30.8118 29.5925 30.4599 29.2407C30.1081 28.8888 29.6903 28.6097 29.2306 28.4193C28.7709 28.2289 28.2782 28.1309 27.7806 28.1309C27.283 28.1309 26.7903 28.2289 26.3305 28.4193C25.8708 28.6097 25.4531 28.8888 25.1013 29.2407C24.7494 29.5925 24.4703 30.0102 24.2799 30.47C24.0895 30.9297 23.9914 31.4224 23.9914 31.92Z" stroke="#093C7F" stroke-width="3" stroke-linecap="round" stroke-linejoin="round"/>
</svg>
