<svg width="53" height="38" viewBox="0 0 53 38" fill="none" xmlns="http://www.w3.org/2000/svg">
<path d="M48.75 0H3.75C2.75544 0 1.80161 0.395088 1.09835 1.09835C0.395088 1.80161 0 2.75544 0 3.75V33.75C0 34.7446 0.395088 35.6984 1.09835 36.4016C1.80161 37.1049 2.75544 37.5 3.75 37.5H48.75C49.7446 37.5 50.6984 37.1049 51.4016 36.4016C52.1049 35.6984 52.5 34.7446 52.5 33.75V3.75C52.5 2.75544 52.1049 1.80161 51.4016 1.09835C50.6984 0.395088 49.7446 0 48.75 0ZM48.75 11.25L26.25 22.5L3.75 11.25V3.75L26.25 15L48.75 3.75V11.25Z" fill="#42A5F5"/>
</svg>
