<svg width="55" height="55" viewBox="0 0 55 55" fill="none" xmlns="http://www.w3.org/2000/svg">
<g clip-path="url(#clip0_10_1579)">
<path d="M13.6961 56.1487C12.3497 56.1487 11.1975 55.6697 10.2395 54.7117C9.2815 53.7537 8.80168 52.6006 8.80005 51.2526V7.18778C8.80005 5.84135 9.27987 4.68914 10.2395 3.73114C11.1991 2.77314 12.3513 2.29332 13.6961 2.29169H38.1766C39.523 2.29169 40.676 2.7715 41.6357 3.73114C42.5953 4.69077 43.0743 5.84298 43.0727 7.18778V19.428H30.8324C28.7924 19.428 27.0584 20.142 25.6304 21.57C24.2023 22.9981 23.4883 24.7321 23.4883 26.7721V51.2526H30.404L35.3001 46.3565H43.0727V51.2526C43.0727 52.599 42.5937 53.752 41.6357 54.7117C40.6777 55.6713 39.5246 56.1503 38.1766 56.1487H13.6961ZM28.3844 46.3565V26.7721C28.3844 26.0785 28.6194 25.4975 29.0894 25.0291C29.5595 24.5607 30.1405 24.3257 30.8324 24.3241H47.9688C48.6624 24.3241 49.2442 24.5591 49.7142 25.0291C50.1842 25.4991 50.4184 26.0801 50.4168 26.7721V39.0124C50.4168 39.706 50.1818 40.2878 49.7118 40.7578C49.2417 41.2278 48.6607 41.462 47.9688 41.4604H33.2805L28.3844 46.3565ZM25.9364 14.5319C26.63 14.5319 27.2118 14.2969 27.6818 13.8269C28.1518 13.3568 28.386 12.7758 28.3844 12.0839C28.3828 11.3919 28.1478 10.8109 27.6794 10.3409C27.211 9.87083 26.63 9.63582 25.9364 9.63582C25.2427 9.63582 24.6617 9.87083 24.1934 10.3409C23.725 10.8109 23.4899 11.3919 23.4883 12.0839C23.4867 12.7758 23.7217 13.3577 24.1934 13.8293C24.665 14.301 25.246 14.5352 25.9364 14.5319Z" fill="#0D99FF"/>
</g>
<defs>
<clipPath id="clip0_10_1579">
<rect width="55" height="55" fill="white"/>
</clipPath>
</defs>
</svg>
