<svg width="28" height="28" viewBox="0 0 28 28" fill="none" xmlns="http://www.w3.org/2000/svg">
<path d="M11.375 14C11.375 13.3038 11.6516 12.6361 12.1438 12.1438C12.6361 11.6516 13.3038 11.375 14 11.375C14.6962 11.375 15.3639 11.6516 15.8562 12.1438C16.3484 12.6361 16.625 13.3038 16.625 14C16.625 14.6962 16.3484 15.3639 15.8562 15.8562C15.3639 16.3484 14.6962 16.625 14 16.625C13.3038 16.625 12.6361 16.3484 12.1438 15.8562C11.6516 15.3639 11.375 14.6962 11.375 14Z" fill="white"/>
<path fill-rule="evenodd" clip-rule="evenodd" d="M2.33334 13.9998C2.33334 15.9132 2.82918 16.556 3.82084 17.8452C5.80068 20.4165 9.12101 23.3332 14 23.3332C18.879 23.3332 22.1993 20.4165 24.1792 17.8452C25.1708 16.5572 25.6667 15.912 25.6667 13.9998C25.6667 12.0865 25.1708 11.4437 24.1792 10.1545C22.1993 7.58317 18.879 4.6665 14 4.6665C9.12101 4.6665 5.80068 7.58317 3.82084 10.1545C2.82918 11.4448 2.33334 12.0877 2.33334 13.9998ZM14 9.62484C12.8397 9.62484 11.7269 10.0858 10.9064 10.9062C10.0859 11.7267 9.62501 12.8395 9.62501 13.9998C9.62501 15.1602 10.0859 16.273 10.9064 17.0934C11.7269 17.9139 12.8397 18.3748 14 18.3748C15.1603 18.3748 16.2731 17.9139 17.0936 17.0934C17.9141 16.273 18.375 15.1602 18.375 13.9998C18.375 12.8395 17.9141 11.7267 17.0936 10.9062C16.2731 10.0858 15.1603 9.62484 14 9.62484Z" fill="white"/>
</svg>
