<svg width="34" height="34" viewBox="0 0 34 34" fill="none" xmlns="http://www.w3.org/2000/svg">
<path d="M29.9386 3.15137H3.67695C2.98044 3.15137 2.31247 3.42805 1.81997 3.92055C1.32747 4.41305 1.05078 5.08103 1.05078 5.77753V8.10957C1.76955 7.4573 2.70635 7.09757 3.67695 7.10112V5.77753H29.9386V7.10112C30.9092 7.09757 31.846 7.4573 32.5648 8.10957V5.77753C32.5648 5.08103 32.2881 4.41305 31.7956 3.92055C31.3031 3.42805 30.6351 3.15137 29.9386 3.15137ZM29.9386 8.4037H3.67695C2.98044 8.4037 2.31247 8.68038 1.81997 9.17288C1.32747 9.66539 1.05078 10.3334 1.05078 11.0299V13.3619C1.76955 12.7096 2.70635 12.3499 3.67695 12.3535V11.0299H29.9386V12.3535C30.9092 12.3499 31.846 12.7096 32.5648 13.3619V11.0299C32.5648 10.3334 32.2881 9.66539 31.7956 9.17288C31.3031 8.68038 30.6351 8.4037 29.9386 8.4037ZM29.9386 13.656H22.0601C22.0108 15.0028 21.4309 16.2755 20.447 17.1964C19.4631 18.1174 18.1549 18.6119 16.8078 18.5722C15.4607 18.6119 14.1525 18.1174 13.1686 17.1964C12.1846 16.2755 11.6048 15.0028 11.5554 13.656H3.67695C2.98044 13.656 2.31247 13.9327 1.81997 14.4252C1.32747 14.9177 1.05078 15.5857 1.05078 16.2822V27.8373C1.05078 28.5338 1.32747 29.2018 1.81997 29.6943C2.31247 30.1868 2.98044 30.4635 3.67695 30.4635H29.9386C30.6351 30.4635 31.3031 30.1868 31.7956 29.6943C32.2881 29.2018 32.5648 28.5338 32.5648 27.8373V16.2822C32.5648 15.5857 32.2881 14.9177 31.7956 14.4252C31.3031 13.9327 30.6351 13.656 29.9386 13.656ZM29.9386 27.8373H3.67695V16.2822H9.41249C10.0104 17.7485 11.0352 19.0012 12.3539 19.8778C13.6726 20.7544 15.2244 21.2145 16.8078 21.1984C18.3918 21.2174 19.9448 20.7585 21.2641 19.8815C22.5833 19.0045 23.6075 17.7501 24.2031 16.2822H29.9386V27.8373Z" fill="white"/>
</svg>
